<?xml version="1.0" encoding="UTF-8"?><svg id="b" xmlns="http://www.w3.org/2000/svg" width="74.55mm" height="25.59mm" viewBox="0 0 211.32 72.53"><g id="c"><path d="M65.19,31.68c-5.01,0-9.03-4.11-9.03-9.24,0-5.13,4.06-9.26,9.05-9.23,4.99.03,9.08,4.2,9.08,9.25,0,5.05-4.1,9.21-9.1,9.22M65.06,0c-12.66.05-22.9,10.1-22.91,22.47,0,12.38,10.34,22.43,23.11,22.41,12.69-.03,22.93-9.98,23.01-22.38C88.35,10.1,77.87-.05,65.07,0" style="fill:#0d1b18;"/><path d="M27.16,17.67C24.1,10.27,17.22,3.04,13.28.87H0v43.13h13.22l.03-27.74c5.06,4.04,10.81,15.34,13.49,27.16l.13.51v.07h13.52V.88h-13.22v16.8h0Z" style="fill:#0d1b18;"/><path d="M194.09,31.21V.86h-13.57v43.16h30.79v-12.8h-17.22Z" style="fill:#0d1b18;"/><path d="M107.08,20.06c-1.14.14-2.32.03-3.64.03v-7c1.5,0,2.98-.18,4.39.05,1.71.27,2.77,1.9,2.66,3.59-.11,1.74-1.39,3.08-3.41,3.33M164.78.88h-.02c-2.94,1.87-8.86,10.29-12.53,20.25-3.7-9.98-9.78-18.48-12.53-20.23h-13.53v41.14c-3.25-4.94-5.94-8.98-8.97-13.58.72-.55,1.26-.93,1.77-1.36,7.21-5.92,6.84-17.69-.72-22.97-3.25-2.28-6.9-3.11-10.77-3.2-5.46-.13-17.04-.07-17.38-.04v43.11h13.34v-12.76s6.54,10.18,8.19,12.78h27.76v-25.93c3.15,3.17,7.15,15.94,7.99,25.91h9.69c.84-9.98,4.86-22.76,8-25.93v25.93h13.22V.88h-13.52Z" style="fill:#0d1b18;"/><path d="M203.18,4.31c.46,0,.72-.23.72-.63s-.26-.64-.72-.64h-.56v1.27h.56ZM202.94,5.14h-.33v1.64h-.98V2.2h1.7c.83-.04,1.53.6,1.56,1.43,0,.01,0,.02,0,.03,0,.6-.37,1.14-.93,1.35l.97,1.77h-1.12l-.88-1.64ZM203.09,7.88c1.82,0,3.25-1.46,3.25-3.36.05-1.79-1.36-3.29-3.15-3.34-.03,0-.06,0-.1,0-1.83,0-3.25,1.46-3.25,3.34s1.42,3.36,3.25,3.36M203.1.32c2.33-.02,4.24,1.85,4.26,4.18s-1.85,4.24-4.18,4.26c-2.33.02-4.24-1.85-4.26-4.18,0-.02,0-.03,0-.05,0-2.31,1.86-4.19,4.18-4.21" style="fill:#0d1b18;"/><polygon points="191.12 52.02 191.12 61.39 184.5 54.76 180.07 59.2 186.69 65.83 177.33 65.83 177.33 72.09 191.12 72.09 197.4 72.09 211.2 72.09 211.2 65.83 201.83 65.83 208.46 59.2 204.02 54.76 197.4 61.39 197.4 52.02 191.12 52.02" style="fill:#308a42;"/><polygon points="101.67 53.63 101.67 72.29 106.17 72.29 106.17 64.87 110.48 64.87 110.48 60.72 106.17 60.72 106.17 57.84 110.62 57.84 110.62 53.63 101.67 53.63" style="fill:#308a42;"/><path d="M119.12,62.35h-1.08c-1.16,0-1.46.46-1.46,1.35v8.6h-4.34v-14.43h4.32v1c.54-.7,1.24-1.08,2.53-1.08l.02,4.56h0Z" style="fill:#308a42;"/><path d="M125.25,69.03c.87.04,1.61-.64,1.64-1.51,0-.04,0-.08,0-.11,0-.97-.73-1.59-1.67-1.59-.85-.04-1.58.62-1.62,1.47,0,.04,0,.08,0,.12-.03.87.66,1.6,1.53,1.62.04,0,.08,0,.12,0M124.44,62.76c1.19,0,1.99.27,2.37.51v-.59c0-.81-.32-1.56-1.39-1.56s-1.32.67-1.32,1.24h-4.02c.08-2.91,1.78-4.66,5.31-4.66,4.5,0,5.71,2.4,5.71,5.63v8.95h-3.56v-.78c-.67.59-1.59.94-2.97.94-2.83,0-5.01-1.86-5.04-4.93-.03-2.86,1.91-4.74,4.9-4.74" style="fill:#308a42;"/><path d="M140.18,63.31c0-1.05-.51-1.75-1.54-1.75s-1.54.68-1.54,1.73v9h-4.34v-14.43h4.34v.93c.32-.3,1.16-1.08,2.91-1.08,3.4,0,4.5,2.32,4.5,5.1v9.49h-4.34v-8.99h0Z" style="fill:#308a42;"/><path d="M155.71,67.68l2.39,3.07c-1.33,1.18-3.05,1.81-4.82,1.78-4.64,0-7.52-3.26-7.52-7.41s3.13-7.49,7.47-7.49c2.45,0,4.01.97,4.87,1.78l-2.4,3.07c-.66-.61-1.53-.95-2.42-.94-2.05,0-3.21,1.54-3.21,3.56,0,2.24,1.54,3.53,3.25,3.53.89,0,1.75-.33,2.4-.94" style="fill:#308a42;"/><path d="M162.2,63.45h5.06c-.11-1.19-1.02-2.21-2.59-2.21-1.29-.06-2.39.92-2.48,2.21M162.09,66.49c.19,1.38,1.27,2.21,2.94,2.21,1.54,0,2.43-.89,2.94-1.7l3.32,1.94c-.81,1.67-2.69,3.58-6.28,3.58-4.39,0-7.41-2.78-7.41-7.39,0-4.31,2.88-7.52,7.09-7.52s7.09,2.88,7.09,7.19c0,.43,0,.94-.05,1.67h-9.62Z" style="fill:#308a42;"/></g></svg>