<svg width="176" height="40" viewBox="0 0 176 40" fill="none" xmlns="http://www.w3.org/2000/svg">
<path d="M26.88 13.3885C24.8137 13.3885 23.1575 11.6528 23.1575 9.48467C23.1575 7.3145 24.8335 5.57471 26.888 5.58486C28.9444 5.59704 30.6323 7.35916 30.6303 9.49279C30.6303 11.6264 28.9384 13.3845 26.878 13.3885M26.8265 0.00210185C21.6043 0.0224028 17.3825 4.26733 17.3805 9.49685C17.3805 14.7264 21.6419 18.9754 26.9078 18.9652C32.1419 18.955 36.3637 14.7507 36.3954 9.50903C36.4311 4.26936 32.1102 -0.0202292 26.8305 7.17618e-05" fill="#0D1A17"/>
<path d="M11.1994 7.46676C9.93737 4.33838 7.0984 1.28309 5.47387 0.367521H0V18.5917H5.45406L5.46397 6.86991C7.5501 8.57722 9.92152 13.352 11.027 18.346L11.0785 18.5612V18.5917H16.6534V0.369551H11.1994V7.46676Z" fill="#0D1A17"/>
<path d="M80.0319 13.1876V0.363463H74.4372V18.5978H87.1343V13.1876H80.0319Z" fill="#0D1A17"/>
<path d="M44.1516 8.47572C43.682 8.53662 43.1947 8.48587 42.6518 8.48587V5.53005C43.27 5.53005 43.8801 5.45494 44.4606 5.55035C45.1639 5.66404 45.6018 6.35427 45.5562 7.06886C45.5086 7.80172 44.9817 8.37015 44.1516 8.47775M67.945 0.373613L67.939 0.377673C66.7286 1.16129 64.2878 4.72207 62.7722 8.9264C61.2468 4.71192 58.7406 1.12069 57.6054 0.377673H52.0246V17.7593C50.6853 15.6704 49.5739 13.9631 48.3238 12.0203C48.623 11.7868 48.8449 11.6284 49.0529 11.4478C52.0266 8.94873 51.874 3.97297 48.7577 1.7419C47.4185 0.777601 45.9108 0.428425 44.318 0.389854C42.0654 0.333011 37.2929 0.357372 37.1502 0.373613V18.5876H42.6518V13.1957C42.6518 13.1957 45.3482 17.4974 46.0297 18.5957H57.4767V7.64135C58.7743 8.97918 60.4246 14.3752 60.7713 18.5896H64.7673C65.114 14.3752 66.7702 8.97309 68.0678 7.63526V18.5896H73.5219V0.371583H67.947L67.945 0.373613Z" fill="#0D1A17"/>
<path d="M83.7782 1.81904C83.9704 1.81904 84.0754 1.72159 84.0754 1.5531C84.0754 1.3846 83.9664 1.28309 83.7782 1.28309H83.5484V1.81904H83.7782ZM83.6831 2.17227H83.5464V2.86657H83.1423V0.931888H83.8456C84.1863 0.915647 84.4756 1.18565 84.4914 1.53686C84.4914 1.54092 84.4914 1.54701 84.4914 1.55107C84.4934 1.80483 84.3408 2.0322 84.1091 2.12152L84.5092 2.8686H84.0476L83.6851 2.1743L83.6831 2.17227ZM83.7425 3.32943C84.4914 3.32943 85.0818 2.71228 85.0818 1.91039C85.1036 1.15317 84.5211 0.519779 83.7822 0.497448C83.7683 0.497448 83.7564 0.497448 83.7425 0.497448C82.9897 0.497448 82.4033 1.1146 82.4033 1.91039C82.4033 2.70619 82.9877 3.32943 83.7425 3.32943ZM83.7485 0.136091C84.7093 0.12594 85.4959 0.915647 85.5058 1.90024C85.5157 2.88484 84.745 3.69078 83.7842 3.70093C82.8233 3.71109 82.0368 2.92138 82.0269 1.93678C82.0269 1.93069 82.0269 1.92257 82.0269 1.91648C82.0269 0.940008 82.7956 0.146241 83.7485 0.138121" fill="#0D1A17"/>
<path d="M78.8075 21.9799V25.9406L76.0775 23.137L74.2489 25.0149L76.9809 27.8144H73.1197V30.4596H78.8075H81.3969H87.0887V27.8144H83.2235L85.9555 25.0149L84.1269 23.137L81.3969 25.9406V21.9799H78.8075Z" fill="#2E8A42"/>
<path d="M41.9228 22.662V30.5428H43.7791V27.4124H45.5562V25.6564H43.7791V24.4404H45.6116V22.662H41.9228Z" fill="#2E8A42"/>
<path d="M49.1163 26.3426H48.6725C48.1951 26.3426 48.0722 26.5395 48.0722 26.913V30.5469H46.2833V24.4505H48.0643V24.8728C48.2862 24.5784 48.5754 24.416 49.1084 24.416L49.1163 26.3446V26.3426Z" fill="#2E8A42"/>
<path d="M51.6482 29.1664C52.0068 29.1827 52.3099 28.8964 52.3257 28.529C52.3257 28.5127 52.3257 28.4965 52.3257 28.4803C52.3257 28.0702 52.0266 27.8083 51.6363 27.8083C51.2837 27.79 50.9845 28.0702 50.9667 28.4315C50.9667 28.4478 50.9667 28.464 50.9667 28.4803C50.9548 28.8477 51.2381 29.1563 51.5967 29.1664C51.6125 29.1664 51.6284 29.1664 51.6442 29.1664M51.3114 26.5192C51.8007 26.5192 52.1336 26.6329 52.2881 26.7364V26.4847C52.2881 26.1436 52.1553 25.8249 51.7136 25.8249C51.2718 25.8249 51.1687 26.1091 51.1687 26.3487H49.5125C49.5462 25.1184 50.2455 24.3774 51.7017 24.3774C53.556 24.3774 54.0572 25.3905 54.0572 26.7587V30.5408H52.5912V30.2099C52.3138 30.4596 51.9354 30.6078 51.3688 30.6078C50.202 30.6078 49.3025 29.8242 49.2906 28.5249C49.2787 27.317 50.0791 26.5212 51.3134 26.5212" fill="#2E8A42"/>
<path d="M57.8035 26.7506C57.8035 26.306 57.5916 26.0096 57.1696 26.0096C56.7476 26.0096 56.5356 26.2959 56.5356 26.7384V30.5428H54.7467V24.4465H56.5356V24.8383C56.6703 24.7124 57.0131 24.3815 57.7362 24.3815C59.1369 24.3815 59.5925 25.362 59.5925 26.5375V30.5469H57.8035V26.7506Z" fill="#2E8A42"/>
<path d="M64.2046 28.598L65.1912 29.8973C64.6444 30.3946 63.9332 30.6626 63.2021 30.6484C61.2884 30.6484 60.1017 29.27 60.1017 27.518C60.1017 25.766 61.3934 24.3531 63.1823 24.3531C64.1927 24.3531 64.8366 24.7632 65.1912 25.1042L64.2026 26.4035C63.9312 26.1456 63.5726 26.0035 63.2021 26.0035C62.3582 26.0035 61.8787 26.6532 61.8787 27.5058C61.8787 28.4518 62.5127 28.9979 63.218 28.9979C63.5845 28.9979 63.9391 28.8558 64.2066 28.598" fill="#2E8A42"/>
<path d="M66.8831 26.8095H68.9712C68.9276 26.3081 68.5492 25.8756 67.9054 25.8756C67.3744 25.8513 66.9207 26.2654 66.8831 26.8095ZM66.8375 28.0966C66.9168 28.6772 67.3605 29.0304 68.048 29.0304C68.682 29.0304 69.0485 28.6528 69.2585 28.3118L70.6255 29.1319C70.2926 29.8384 69.514 30.6464 68.0361 30.6464C66.2234 30.6464 64.9792 29.4709 64.9792 27.5261C64.9792 25.7051 66.1679 24.349 67.9014 24.349C69.6349 24.349 70.8236 25.5671 70.8236 27.3881C70.8236 27.5708 70.8236 27.788 70.8018 28.0945H66.8336L66.8375 28.0966Z" fill="#2E8A42"/>
<path d="M111.05 27.317C111.736 27.317 112.358 27.0673 112.917 26.5638L114.783 29.0142C113.804 29.9602 112.552 30.4332 111.029 30.4332C109.267 30.4332 107.851 29.8709 106.781 28.7462C105.711 27.6215 105.176 26.2147 105.176 24.5236C105.176 22.8325 105.725 21.4318 106.823 20.2787C107.92 19.1256 109.307 18.549 110.985 18.549C112.536 18.549 113.802 19.022 114.781 19.9681L112.915 22.4184C112.356 21.917 111.726 21.6652 111.027 21.6652C110.244 21.6652 109.632 21.9312 109.192 22.461C108.752 22.9909 108.532 23.671 108.532 24.5033C108.532 25.3356 108.776 26.0482 109.265 26.5557C109.755 27.0653 110.349 27.319 111.049 27.319L111.05 27.317Z" fill="#0D1A17"/>
<path d="M114.846 26.4359C114.832 25.2889 115.175 24.3734 115.875 23.6852C116.574 22.997 117.503 22.6539 118.664 22.6539C119.474 22.6539 120.09 22.7899 120.51 23.0619V22.5889C120.51 21.7586 120.146 21.3424 119.421 21.3424C119.056 21.3424 118.795 21.4399 118.634 21.6327C118.474 21.8256 118.393 22.0591 118.393 22.3311H115.268C115.296 21.1415 115.657 20.2259 116.348 19.5803C117.039 18.9348 118.058 18.614 119.399 18.614C121.035 18.614 122.184 19.0078 122.848 19.7955C123.512 20.5832 123.845 21.6876 123.845 23.1046V30.2403H121.077V29.6171C120.518 30.1185 119.748 30.3703 118.769 30.3703C117.636 30.3703 116.703 30.015 115.97 29.3065C115.235 28.598 114.862 27.6418 114.848 26.438L114.846 26.4359ZM118.369 25.4371C118.131 25.6726 118.012 25.9771 118.012 26.3507C118.012 26.7242 118.135 27.0308 118.379 27.2744C118.622 27.518 118.927 27.6398 119.292 27.6398C119.657 27.6398 119.96 27.518 120.203 27.2744C120.447 27.0308 120.57 26.7222 120.57 26.3507C120.57 25.9792 120.447 25.6564 120.203 25.427C119.958 25.1976 119.647 25.0839 119.27 25.0839C118.894 25.0839 118.607 25.2017 118.369 25.4392V25.4371Z" fill="#0D1A17"/>
<path d="M133.574 30.2403V29.4872C132.833 30.1185 131.846 30.4332 130.616 30.4332C128.869 30.4332 127.462 29.881 126.4 28.7787C125.338 27.6763 124.806 26.2573 124.806 24.5236C124.806 22.7899 125.333 21.4318 126.388 20.2787C127.444 19.1256 128.803 18.549 130.468 18.549C131.615 18.549 132.558 18.7845 133.299 19.2575V14.5295H136.674V30.2383H133.57L133.574 30.2403ZM128.164 24.481C128.164 25.2971 128.407 25.9792 128.897 26.5232C129.386 27.0673 130.016 27.3393 130.785 27.3393C131.595 27.3393 132.235 27.0673 132.704 26.5232C133.172 25.9792 133.408 25.2991 133.408 24.481C133.408 23.6628 133.166 22.9807 132.684 22.4285C132.203 21.8764 131.569 21.6003 130.787 21.6003C130.004 21.6003 129.354 21.8723 128.879 22.4164C128.403 22.9604 128.166 23.6486 128.166 24.4789L128.164 24.481Z" fill="#0D1A17"/>
<path d="M148.674 25.6198H141.187C141.257 26.1639 141.495 26.5943 141.901 26.909C142.307 27.2236 142.83 27.382 143.474 27.382C144.439 27.382 145.199 26.9313 145.76 26.0279L148.339 27.5748C147.961 28.3625 147.371 29.0365 146.566 29.5948C145.762 30.153 144.724 30.4332 143.452 30.4332C141.718 30.4332 140.324 29.9074 139.268 28.8538C138.212 27.8002 137.685 26.3649 137.685 24.5459C137.685 22.727 138.198 21.379 139.226 20.2482C140.254 19.1175 141.578 18.5511 143.2 18.5511C144.906 18.5511 146.251 19.0748 147.238 20.1203C148.224 21.1658 148.716 22.5564 148.716 24.2901C148.716 24.7916 148.702 25.2362 148.674 25.6219V25.6198ZM143.2 21.4297C142.642 21.4297 142.19 21.6023 141.847 21.9454C141.504 22.2885 141.312 22.7046 141.271 23.1919H145.213C145.172 22.6904 144.971 22.2722 144.615 21.9352C144.258 21.5982 143.787 21.4297 143.198 21.4297H143.2Z" fill="#0D1A17"/>
<path d="M158.845 23.0843V30.2403H155.47V23.0843C155.47 22.6539 155.365 22.3149 155.155 22.0631C154.945 21.8134 154.643 21.6876 154.253 21.6876C153.863 21.6876 153.58 21.8094 153.362 22.053C153.146 22.2966 153.037 22.6336 153.037 23.064V30.2424H149.661V18.746H153.037V19.4768C153.595 18.9043 154.378 18.6181 155.386 18.6181C156.533 18.6181 157.399 18.9693 157.988 19.6717C158.742 18.9693 159.658 18.6181 160.735 18.6181C162.09 18.6181 163.085 18.9936 163.713 19.7468C164.341 20.5 164.656 21.4764 164.656 22.6803V30.2444H161.28V23.0883C161.28 22.6579 161.175 22.3189 160.965 22.0672C160.755 21.8175 160.454 21.6916 160.064 21.6916C159.673 21.6916 159.372 21.8236 159.162 22.0895C158.952 22.3555 158.847 22.6884 158.847 23.0883L158.845 23.0843Z" fill="#0D1A17"/>
<path d="M170.463 34.0001H167.212L168.743 29.6151L164.632 18.7419H168.345L170.463 24.9093L172.561 18.7419H176L170.463 34.0001Z" fill="#0D1A17"/>
<path d="M100.404 16.7991L97.1865 18.6465L98.603 22.9239H95.768L97.1865 18.6465L94.0207 16.8295L89.5156 30.3764H93.3273L94.6526 26.3446H99.7204L101.068 30.3764H105.182L100.404 16.7991Z" fill="#0D1A17"/>
<path d="M97.1845 0.349251L87.4175 5.80817L97.1845 11.2671L105.176 6.79886V13.0861H106.952V5.80817M90.9677 9.61054V13.2505L97.1826 16.726L103.397 13.2505V9.61054L97.1826 13.0861L90.9677 9.61054Z" fill="#2E8A42"/>
<rect x="0.75" y="37.7501" width="174.5" height="1.5" fill="#0D1A17" stroke="black" stroke-width="1.5"/>
</svg>
