<svg v-if="panel.id === 'right'" xmlns="http://www.w3.org/2000/svg" viewBox="0 0 19.84 25.93">
                <path d="M.28,4.28c.21-.26.41-.52.64-.76.42-.44.9-.8,1.39-1.15.9-.64,1.89-1.12,2.92-1.52.82-.32,1.67-.53,2.53-.71.8-.17,1.6-.19,2.4-.04.7.13,1.39.3,2.07.52,1.52.5,2.93,1.21,4.2,2.2.84.65,1.52,1.42,2.01,2.37.26.51.52,1.02.77,1.54.1.21.19.42.25.65.14.53.26,1.06.38,1.59.01.04,0,.09,0,.16-.15-.19-.12-.48-.4-.56-.03.03-.05.06-.07.09-.06.17-.14.34-.24.49-.15.23-.27.48-.42.71-.3.45-.5.95-.64,1.47-.01.04-.02.08-.03.12-.46,0-.9.06-1.29.34-.08.06-.16.13-.24.2-.03.02-.05.04-.07.07-.03.03-.06.06-.09.09-.04-.03-.07-.06-.11-.09-.33-.27-.72-.41-1.11-.54-.28-.09-.57-.15-.86-.19-.06,0-.13-.02-.19-.04-.46-.11-.92-.17-1.4-.15-.1,0-.2,0-.3,0-.38-.02-.76-.02-1.13.05-.23.04-.45.09-.68.13-.03,0-.06.02-.08.03-.09-.01-.18-.02-.27-.04-.05-.02-.1-.04-.15-.05,0,0,0,0,0,0-.07-.27-.15-.51-.24-.75-.03-.08-.17-.15-.25-.13-.03,0-.07.03-.09.05-.2.22-.31.48-.3.77,0,.09.03.18.07.26.05.1.14.17.27.15.05,0,.09,0,.14-.01.04,0,.07-.02.11-.03.1-.04.21-.07.33-.12.1.05.21.1.32.15.04.03.08.06.12.1.1.1.12.23.08.36-.07.22-.17.41-.37.53-.1.06-.13.15-.13.26,0,.32.05.63.17.92.1.25.22.49.34.73.13.25.32.45.57.59.21.12.41.24.65.31.35.1.66.27.94.51.14.13.31.23.47.35.22.16.47.24.74.29.41.08.82.11,1.24.16.24.03.48.05.72.08.06,0,.13,0,.19,0,.22,0,.39-.1.51-.29.07-.11.12-.23.2-.33.25-.34.38-.76.61-1.12.09-.14.12-.31.13-.48.01-.18.03-.35.12-.51.03-.05.04-.1.03-.15.02,0,.04,0,.06.01.24.1.48.19.73.24.05.2.11.39.19.59.11.27.19.56.22.86.05.47.05.94.02,1.41-.01.19-.03.39-.02.58.01.19-.01.37-.03.55-.04.36-.19.66-.47.88-.2.16-.35.35-.46.58-.08.15-.16.29-.24.44-.15.28-.29.56-.44.83,0,.01-.02.03-.02.04-.04,0-.09.01-.13.02-.07-.06-.04-.18-.01-.28.04-.06.07-.12.1-.18.16-.3.31-.61.49-.97-.36.12-.65.25-.89.49-.25.06-.48.2-.69.36-.04,0-.07.02-.11.03-.23.06-.44.03-.65-.07-.08-.04-.15-.11-.22-.16-.13-.09-.26-.19-.42-.19-.22,0-.33.04-.39.26-.07.28-.17.55-.25.82,0,.03,0,.05-.01.09.1.09.12.21.11.35,0,.16,0,.31,0,.47,0,.15.02.32-.07.46-.01.02-.01.05,0,.08.04.25.07.49.12.74.04.2.06.4-.04.6-.03.06-.03.12-.05.19-.04.21-.08.42-.11.63-.04.19-.08.39-.23.52-.17.14-.33.3-.56.34-.05,0-.09.05-.14.08-.04.02-.08.05-.12.07-.08.03-.15,0-.2-.06-.04-.04-.05-.1-.02-.15,0-.02.02-.03.03-.05.14-.37.27-.75.24-1.16,0-.06,0-.11,0-.17.01-.05.04-.1.07-.16-.17-.05-.29,0-.39.13,0,.08,0,.17.01.27.01.19.02.39.03.58.02.3-.1.54-.26.77-.11.16-.27.21-.46.19-.09-.01-.16-.07-.16-.16,0-.21-.02-.42.09-.62.07-.13.1-.28.14-.42.01-.05.02-.11,0-.16-.02-.08-.06-.15-.09-.23-.02-.08-.03-.16-.05-.25-.13,0-.23,0-.33.05-.01.03-.03.05-.03.06,0,.06,0,.11,0,.17.01.44-.07.86-.13,1.3-.01.1-.05.18-.15.22-.14.05-.27.11-.41.11-.2-.11-.24-.28-.18-.48,0-.03.01-.05.02-.08.08-.4.17-.8.25-1.19.01-.07.01-.14.02-.22-.25-.03-.47,0-.7.03-.01.11,0,.2.03.28.06.25.12.5.16.76.04.23.06.46-.02.69-.03.09-.09.14-.2.17-.36.09-.69-.01-1.03-.09-.01-.06-.01-.11-.03-.15-.06-.14-.07-.28-.05-.43.02-.16.02-.31.02-.47,0-.16.02-.31.07-.46.02-.08.04-.16.06-.24-.14-.08-.27-.07-.41-.03.04.3.09.6.11.89.02.3.06.61-.02.92-.24.04-.47.07-.69.1-.1.01-.2,0-.3-.04-.1-.04-.18-.11-.19-.22-.02-.14-.03-.28-.02-.41,0-.18.03-.35.04-.52,0-.21.04-.42.12-.62.03-.08.07-.15.04-.24-.07-.06-.16-.06-.24-.04-.16.04-.32.08-.46.17.03.07.05.13.07.19.01.07.01.15.02.22.01.16.02.31.03.47.02.17.04.35.06.52.01.11.02.22-.03.33-.03.07-.12.11-.18.09-.11-.04-.24-.21-.22-.33.04-.23.05-.46.01-.69,0-.04,0-.09.02-.14.07-.22.01-.44-.05-.66-.06.02-.11.04-.15.05-.1-.13-.11-.13-.11-.22,0-.08,0-.17,0-.25.03-.22,0-.44-.02-.66-.03-.23-.12-.45-.28-.61-.13-.13-.16-.28-.17-.45-.02-.2.04-.39.12-.56.08-.16.21-.3.37-.4.03-.02.09-.02.13-.02.26.02.51,0,.77.05.15.03.29,0,.43-.07.04-.02.5-.52.52-.57.07-.24.15-.48.09-.73-.04-.18-.07-.36.05-.53.02-.03.03-.07.03-.09.3-.15.6-.11.88.06.09.06.19.11.29.16.11.06.23.07.35.02.42-.19.67-.44.65-.9,0-.12-.02-.24-.03-.36-.01-.11-.04-.22-.04-.33,0-.4-.11-.78-.24-1.16-.09-.24-.19-.46-.35-.66-.19-.24-.33-.51-.46-.79-.08-.16-.19-.3-.32-.41-.32-.26-.7-.22-.95.11-.13.17-.24.35-.31.56-.05.15-.13.29-.21.42-.07.12-.13.25-.18.37-.05.12-.08.24-.13.36-.23.56-.31,1.16-.39,1.75,0,.05,0,.09,0,.14,0,.29.09.54.3.75.06.06.11.12.17.19-.13.11-.05.3-.2.4-.06-.05-.11-.09-.17-.14-.05-.04-.1-.08-.16-.1-.2-.08-.32-.22-.34-.43-.03-.3-.08-.6-.09-.91,0-.3.01-.61,0-.91,0-.2.02-.39.1-.57.06-.14.12-.27.15-.42.03-.15.1-.25.24-.32.04-.02.08-.05.12-.07.14-.08.25-.19.3-.35.04-.1.1-.2.16-.29.13-.18.28-.34.42-.51.05-.06.1-.13.15-.2.06-.09.1-.2.09-.31-.03-.34,0-.68.03-1.02.02-.24,0-.48-.04-.72-.02-.12-.06-.23-.15-.32-.11-.12-.17-.26-.17-.43,0-.17-.08-.3-.22-.39-.1-.06-.2-.13-.3-.19-.05-.03-.1-.05-.14-.08-.23-.2-.49-.32-.78-.4-.14-.04-.27-.04-.41,0-.09.02-.18.05-.26.09-.3.15-.61.19-.94.18-.35,0-.7-.01-1.05.07-.08.02-.16.01-.28.02-.02-.07-.03-.12-.04-.17.09-.04.09-.16.15-.22.12-.12.15-.26.16-.42.02-.2,0-.4.06-.6.11-.34.09-.66-.09-.98-.11-.19-.2-.39-.22-.62-.03-.35-.04-.7-.1-1.04-.03-.22-.04-.43-.12-.65-.09-.24-.16-.49-.32-.7-.03-.04-.06-.09-.08-.14-.02-.09-.07-.15-.14-.2-.16-.11-.25-.27-.34-.43-.06-.11-.12-.23-.19-.34-.04-.07-.08-.14-.09-.23-.01-.16-.11-.26-.25-.33-.31-.18-.63-.15-.92.01-.33.18-.68.33-.99.55-.03.02-.08.06-.13,0,.03-.05.05-.11.09-.16Z" style="fill:#e4e9dd;" />
                <path d="M16.66,12.16c.04-.07.06-.15.1-.21.01,0,.02,0,.03,0,.06-.05.11-.1.18-.13.01,0,.02-.02.02-.03.13-.07.27-.13.41-.16.02,0,.02-.01.03-.03.12-.03.25-.04.37-.05,0,0,0,0,.01,0,.08.02.16.04.24.06,0,.11.03.23.08.34.1.21.18.42.25.64.08.24.12.49.03.74-.06.18-.06.36-.02.54-.07,0-.14,0-.2,0-.09-.01-.17-.02-.25-.04-.08-.02-.17-.05-.25-.07,0,0,0,0,0-.01-.02-.1-.1-.18-.2-.2-.1-.18-.21-.35-.32-.52-.15-.23-.32-.45-.53-.63-.02-.02-.05-.04-.07-.06.03-.05.07-.1.1-.15Z" style="fill:#e4e9dd;" />
                <path d="M2.05,17.88c.01.1.01.19.03.26.03.12.07.23.11.34.1.3.19.59.19.91,0,.1,0,.2.05.29.14.22.32.32.58.27.16-.03.32-.09.47-.15.18-.08.37-.13.56-.13.05,0,.09,0,.14-.01.26-.03.34-.12.33-.38,0-.13-.03-.25-.08-.37-.19-.4-.43-.77-.69-1.13-.11-.15-.26-.28-.4-.41-.08-.08-.27-.08-.36-.01-.14.09-.27.2-.36.34-.09.15-.21.22-.39.18-.04-.01-.09,0-.18,0Z" style="fill:#e4e9dd;" />
                <path d="M1.15,16.04c.05-.06.01-.12-.01-.16-.04-.08-.05-.15-.03-.24.01-.04,0-.09,0-.13-.04-.12-.09-.24-.12-.37-.03-.14-.08-.27-.2-.35-.11-.07-.11-.19-.17-.28-.02-.04-.1-.04-.12,0-.04.12-.09.24-.1.37-.02.14,0,.28,0,.43-.06.07-.14.15-.2.24-.16.24-.21.51-.17.79.01.09.08.16.17.21.09,0,.14-.06.18-.14.12-.24.15-.49.15-.75,0-.11.02-.2.07-.29.06-.1.19-.1.25,0,.03.05.05.12.08.18.06.14.12.29.18.43,0,.02.03.04.05.06Z" style="fill:#e4e9dd;" />
                <path d="M2.06,11.64s-.05,0-.08.02c-.33.17-.65.35-.9.63-.22.25-.43.5-.51.84-.02.1-.02.18.05.26.16-.05.25-.16.31-.29.06-.13.14-.24.23-.34.08-.09.15-.19.22-.28.05-.06.09-.11.14-.17.17-.18.35-.35.53-.52.04-.04.07-.09,0-.14Z" style="fill:#e4e9dd;" />
                <path d="M6.14,24.17c-.16.03-.21.1-.22.22-.03.23.01.46.07.68.05.21.12.42.19.64,0,.02.03.04.06.08.04-.03.08-.04.1-.08.07-.12.09-.26.04-.4-.05-.11-.09-.22-.11-.34-.04-.17-.06-.34-.09-.52-.01-.09-.02-.18-.03-.29Z" style="fill:#e4e9dd;" />
              </svg>