<svg xmlns="http://www.w3.org/2000/svg" viewBox="0 0 113.55 261.88">
          <g>
            <g>
              <polygon points="56.07 151.09 7.42 200.41 47.42 2.88 53.72 107.08 102.2 64.12 63.64 259.05 56.07 151.09" style="fill:#1a211b; fill-rule:evenodd;" />
              <path d="M47.22,5.77l6.18,102.1,48.22-42.73-37.8,191.08-7.44-105.98-48.35,49.01L47.22,5.77M47.62,0l-1.14,5.62L7.3,199.1l-.5,2.47,1.77-1.79,47.18-47.83,7.32,104.32.39,5.61,1.09-5.51,37.8-191.08.43-2.18-1.66,1.48-47.07,41.71L47.96,5.72l-.35-5.72h0Z" style="fill:#e4e9dd;" />
            </g>
            <polygon points="0 38.22 24.39 72.11 14.55 69.52 27.69 94.44 1.28 59.76 13.04 63.64 0 38.22 0 38.22" style="fill:#fff; fill-rule:evenodd;" />
            <polygon points="113.55 214.32 89.16 180.43 99 183.03 85.86 158.1 112.27 192.78 100.51 188.9 113.55 214.32 113.55 214.32" style="fill:#fff; fill-rule:evenodd;" />
          </g>
        </svg>