<svg v-if="panel.id === 'left'" xmlns="http://www.w3.org/2000/svg" viewBox="0 0 61.67 60.05">
                <g>
                  <path d="M33.42,59.55c-1.13-.01-1.33-.01-1.76-.42l-.11-.1c-.11-.1-.17-.23-.16-.38,0-.57-.07-1.71-.14-2.72-.05-.7-.09-1.34-.1-1.74-.05-1.76-.07-3.2-.06-4.56,0-.82.03-1.65.07-2.47.01-.28.03-.56.06-.84,0-.03,0-.05,0-.08-.15.12-.3.24-.46.35-.59.52-1.1.99-1.52,1.37-1.05.96-1.4,1.28-1.76,1.31-.65.94-1.58,1.56-2.15,1.73-.44.79-1.14,1.43-1.97,1.78-.06.03-.21.06-.28.06-.51.7-1.23,1.22-2.11,1.52-.05.02-.18.04-.24.04-.18,0-.34-.07-.46-.19-.75.66-1.36,1.05-1.91,1.4-.59.38-1.06.67-1.53,1.2-.1.11-.23.16-.37.16-.1,0-.19-.03-.28-.08-.21-.14-.28-.4-.18-.63,0-.01.01-.03.02-.04,0-.02.01-.04.02-.07.38-.96.94-2.24,1.77-3.26-.09-.09-.15-.21-.17-.33-.02-.09,0-.28.03-.36.23-.63.66-1.17,1.22-1.55.09-.06.19-.12.3-.18,0-.05,0-.1.01-.14.03-.14.1-.26.2-.36.34-.32.73-.67,1.22-.94,0-.05,0-.09.02-.14.04-.16.16-.29.31-.34.08-.05.2-.16.29-.24.11-.09.2-.16.23-.19.26-.17.54-.32.83-.44.24-.1.46-.18.69-.25.02-.11.07-.19.09-.24.03-.05.1-.14.14-.17l.26-.23c.59-.53,1.24-.85,1.98-.99.26-.33.89-.62,1.57-.84l-.46-.03c-.06.02-.13.03-.2.03-.09,0-.26-.05-.34-.1-.1-.06-.18-.15-.23-.25-.08.01-.17.02-.26.03-.19.02-.38.03-.57.03-.58,0-1.15-.08-1.68-.25-.18-.06-.32-.17-.41-.33,0-.01-.01-.02-.02-.04-.63.2-1.32.36-1.96.36-.12,0-.25,0-.36-.02-.28-.03-.49-.19-.57-.44-.02-.07-.03-.14-.03-.21-.08.02-.17.03-.25.05-.35.06-.7.09-1.05.09-.47,0-.93-.05-1.37-.15-.29-.07-.49-.3-.52-.56-.26.05-.53.08-.8.1-.24.02-.49.03-.73.03-.72,0-1.44-.09-2.12-.26-.27-.07-.46-.28-.5-.52-.07,0-.15-.02-.22-.02-.18-.02-.36-.04-.56-.04-.78,0-1.41-.1-2.12-.29-.19-.05-.34-.16-.42-.32-.05-.1-.08-.2-.09-.31-.1,0-.19,0-.29,0s-.18,0-.28,0c-.71-.04-1.4-.21-2-.5-.18-.08-.31-.22-.37-.39-.06-.17-.05-.35.03-.52.02-.03.06-.1.08-.13,0,0,0,0,0,0-.07-.02-.14-.04-.21-.06-1.89-.28-4.12-.95-5.28-1.32-.24-.08-.38-.31-.34-.56.04-.24.25-.42.49-.42,0,0,.23,0,.23,0,1.09,0,1.95-.22,2.85-.46.88-.23,1.8-.47,2.92-.47.22,0,.43,0,.65.03.01-.25.18-.49.43-.57.03,0,.07-.02.1-.02.26-.04.5-.06.74-.06.77,0,1.52.19,2.18.54.11-.09.24-.14.39-.14h.14c.41,0,1.34.06,2.32.58.08-.05.18-.09.29-.1.12-.01.3-.03.54-.03.54,0,1.45.09,2.37.61.18-.19.48-.29.92-.29.68,0,2.07.27,3.19,1.2.11-.1.26-.16.42-.16l.02.5.09-.49c.74.1,1.48.35,2.14.73.25.14.48.3.69.48.04-.03.08-.05.13-.07-.06-.03-.13-.06-.19-.09-.68-.36-1.28-.82-1.77-1.37-.13-.15-.19-.31-.18-.49,0-.08.02-.16.06-.24-.07-.02-.14-.05-.22-.08-.93-.32-1.88-.65-2.56-1.38-.14-.15-.2-.32-.19-.5,0-.04,0-.08.01-.11-.05-.02-.1-.04-.14-.06-.75-.31-1.28-.75-1.84-1.23l-.13-.11c-.2-.17-.24-.47-.08-.68-.2-.11-.4-.24-.59-.38-.41-.3-.7-.65-.98-1-.13-.16-.27-.33-.42-.49-.12-.13-.16-.3-.12-.47.03-.1.09-.2.17-.26-.59-.29-.96-.56-1.18-.71l-.12-.08c-.2-.14-.3-.35-.3-.57,0-.2.09-.38.24-.51-.15-.1-.29-.21-.43-.33-.37-.32-.6-.7-.83-1.06-.07-.11-.14-.22-.21-.32-.1-.14-.11-.32-.04-.48.03-.08.09-.14.15-.19-.16-.09-.31-.2-.46-.32-.3-.24-.57-.5-.8-.79-.35-.42-.74-.98-.65-1.3.04-.16.17-.29.32-.34.02,0,.05-.02.07-.02-.3-.32-.54-.66-.71-.92-.03-.02-.06-.04-.08-.07-.13-.13-.19-.31-.19-.49,0-.18.08-.34.2-.46,0,0-.01-.01-.02-.02-.51-.51-.9-1.11-1.14-1.76-.07-.18-.06-.37.01-.53.03-.06.07-.12.11-.17-.67-.54-1.23-1.23-1.61-2-.17-.34-.03-.74.29-.9.02-.01.05-.02.08-.03-.08-.12-.17-.25-.26-.4-.45-.77-.73-1.61-.97-2.4-.22-.7-.47-1.42-.82-2.32-.08-.21-.01-.45.17-.58.09-.06.19-.1.29-.1.11,0,.22.04.31.11.47.38,2.25,1.95,2.49,2.18.6.57,1.07,1.16,1.42,1.78.04,0,.08-.01.13-.01.03,0,.08,0,.11,0,.07.01.21.07.27.11.55.4,1.02.9,1.39,1.47.12.2.23.4.32.61.02,0,.05,0,.08,0,.1,0,.26.05.35.11.77.55,1.36,1.34,1.68,2.22.1-.06.22-.09.33-.09.17,0,.34.07.47.19.44.48.76,1.06.95,1.71.05-.01.1-.02.16-.02.1,0,.28.06.37.11.04.03.08.06.11.1.55.55.98,1.23,1.24,1.96.08-.03.16-.05.25-.05.17,0,.34.07.46.19l.02.02c.54.56.93,1.26,1.14,2.03.02.08.04.16.05.24.05-.01.1-.02.16-.02.15,0,.29.05.41.14.02.01.06.05.08.07.43.48.73,1.03.9,1.62.02.06.03.12.05.17.17,0,.33.06.45.18.01.01.06.06.07.07.4.46.71.99.93,1.57,0,0,.14.41.28.86.07-.04.16-.08.28-.09.02,0,.08,0,.1,0,.25,0,.58.12.71.67.03.14.08.24.14.36l.06.14c.21.48.38.96.49,1.44.03.11.05.22.07.32.16,0,.32.06.44.17.02.02.06.07.08.09.43.58.75,1.27.92,1.97.06.02.12.05.15.07.03.02.06.04.08.07.53.57.94,1.19,1.24,1.88.15.34.26.67.34,1.01,0,0,0,0,0,0,.01-.12.03-.24.05-.37,0-.02,0-.04.02-.06-.3-.59-.59-1.51-.82-2.95-.02-.16.03-.31.14-.43.04-.04.09-.08.14-.1-.22-.41-.4-.83-.52-1.31-.21-.83-.32-1.64-.34-2.41,0-.15.05-.28.15-.37-.13-.22-.24-.46-.33-.7-.17-.48-.21-.94-.26-1.38l.49-.17-.5.05c-.04-.44-.09-.9.01-1.41.02-.11.08-.21.17-.28-.05-.1-.09-.21-.12-.32-.16-.6-.29-1.23-.13-1.89.02-.12.06-.24.12-.37.03-.08.08-.14.15-.19-.14-.24-.26-.5-.35-.78-.21-.67-.26-1.34-.15-1.95.02-.12.05-.24.09-.36.05-.16.18-.29.34-.33.01,0,.05-.01.09-.02-.1-.2-.18-.42-.25-.66-.14-.56-.12-1.06-.09-1.55,0-.2.02-.41.02-.62,0-.28.21-.5.49-.51,0,0,.04,0,.05,0-.21-.63-.27-1.31-.17-1.97.01-.07.08-.39.08-.39.05-.27.12-.61.37-.91.06-.07.13-.12.2-.15-.28-1.15-.16-2.21.33-3.05.04-.07.09-.12.16-.16-.04-.29-.04-.6,0-.91.04-.35.12-.66.24-.92.05-.11.07-.24.1-.39.02-.1.04-.19.06-.29.02-.08.08-.33.32-.46.08-.04.22-.08.31-.08.12,0,.22.03.3.06,0-.1-.01-.19-.01-.28,0-.44.01-.89.05-1.33.09-1.2.4-2.37.71-3.49.07-.27.11-.52.15-.77l.04-.26c.04-.23.22-.4.45-.42.01,0,.03,0,.04,0,.21,0,.4.13.47.33.21.58.4,1.16.58,1.75l.17.55c.31.96.62,1.96.75,3,.02.19.04.36.04.53.05-.01.1-.02.14-.02.7,0,1.19,2.08,1.2,2.1.06.33.08.65.06.97.07.05.13.12.17.21.13.3.18.62.22.91l.04.23c.06.37.12.75.14,1.13.02.36,0,.72-.05,1.07.01.2.01.39,0,.57.15.02.29.1.38.24.48.78.51,1.72.45,2.38-.02.27-.08.55-.17.88.34.37.48,1.16.49,1.21.06.37.08.76.04,1.16-.04.38-.12.74-.24,1.09.25.14.41.53.49,1.15l.02.14c.04.28.07.57.05.89-.02.31-.08.63-.18.96.05.03.09.06.13.1.2.23.18.92.18.92l-.03.16c-.01.07-.02.13-.03.2-.02.36-.07.73-.15,1.08-.09.36-.25.72-.45,1.06.14.08.23.23.25.39.06.64.04,1.25-.04,2.03-.04.36-.12.71-.24,1.04-.03.08-.06.16-.09.23.09.09.15.22.15.36,0,.14,0,.28,0,.42,0,.38,0,.77-.05,1.17-.05.34-.12.64-.21.92.08.08.13.19.14.31.02.4.05.77-.03,1.17-.02.11-.04.23-.07.35.03,0,.07-.01.1-.01,0-.03,0-.05.02-.08.16-.78.47-1.51,1.01-2.37.08-.13.23-.22.38-.23.12-.37.26-.74.47-1.12.28-.52.61-1.03,1.06-1.11.19-.87.58-1.71,1.15-2.42.13-.16.33-.26.54-.26h0c.04-.15.08-.29.14-.44.31-.81.8-1.5,1.44-2.01.14-.11.28-.16.44-.16h0c.05-.13.11-.25.17-.37.4-.79.99-1.47,1.7-1.96.12-.08.25-.12.38-.12.08,0,.15.01.22.04.29-.88.81-1.7,1.49-2.33.14-.13.3-.19.47-.19.08,0,.16.01.23.04.03-.08.06-.16.1-.23.12-.25.25-.41.37-.58l.13-.18c.19-.24.35-.45.52-.65l.27-.3.23-.25s.07-.06.08-.07c.01-.01.08-.06.08-.06.15-.11.33-.12.38-.12.12,0,.24.03.34.09.04-.08.08-.16.12-.24.51-.97.87-1.22,1.19-1.44.08-.06.17-.11.25-.19.13-.11.29-.18.46-.18.19,0,.37.08.5.22,0,.01.02.03.03.04.27-.37.6-.71.93-1.03.17-.17.34-.34.5-.51,1.06-1.07,1.91-1.85,2.74-2.54.09-.08.2-.11.32-.11.05,0,.11,0,.16.02.16.05.29.19.33.35.02.07.03.16.02.23-.02.12-.04.24-.05.36,0,.06-.02.11-.04.16-.28.64-.52,1.33-.75,2-.4,1.18-.82,2.38-1.5,3.4.08.08.14.19.17.31.02.06.02.19.01.25-.16.89-.62,1.68-1.26,2.25,0,0,0,0,0,0,.13.57-.03,1.13-.5,1.75-.5.65-.96,1.12-1.47,1.51.05.18.02.38-.09.54-.28.4-.87,1.12-1.78,1.63.15.1.27.22.34.37.11.22.09.47-.03.68-.03.06-.12.16-.18.2-.15.1-.28.23-.43.38-.19.19-.41.41-.69.62.18.11.3.27.34.46.05.26-.04.52-.26.72-.51.46-1.06.85-1.62,1.16.15.11.26.29.27.49.02.24-.08.47-.27.6l-.34.37-.44.46c-.62.53-1.13.93-1.67,1.21.02.11.01.22-.02.33-.02.06-.08.16-.11.21-.51.62-1.13,1.13-1.83,1.5-.13.07-.26.13-.4.19-.01.06-.03.12-.04.16-.16.4-.46.76-.86,1.06-.34.24-.71.43-1.1.55-.11.03-.21.07-.32.1.02.15-.03.31-.13.43,0,0-.02.02-.02.03.04.01.08.03.12.05.16-.15.34-.29.53-.42.55-.38,1.2-.71,2.05-1.02.06-.02.18-.05.24-.05.15,0,.29.05.41.15.12-.1.24-.2.37-.29.62-.44,1.33-.73,2.05-.86.03,0,.11-.01.14-.01.21,0,.4.1.52.28.7-.6,1.54-1.08,2.42-1.39.05-.02.18-.04.24-.04.28,0,.54.18.63.44,0,.02.01.03.02.05.03-.01.06-.03.09-.04.15-.12.39-.26.64-.38.41-.19,1.05-.41,1.82-.44h0c.22,0,.39.07.5.19.64-.36,1.41-.59,2.16-.63h0c.32,0,.57.17.66.41,2.09-.52,3.65-.76,4.26-.85.02,0,.05,0,.07,0,.19,0,.39.11.47.28.09.2.07.43-.08.58-.95.9-2.21,1.78-3.56,2.5.05.05.1.12.13.19.08.17.09.36.03.54-.06.16-.17.29-.31.37-.78.45-1.62.74-2.47.84-.03.18-.14.34-.3.44-.43.26-1.19.63-2.18.76,0,.25-.15.46-.37.57l-.3.11c-.53.19-1.25.46-2.19.49.01.04.02.08.02.13.01.23-.09.44-.29.56-.04.02-.11.06-.15.08-.75.25-1.51.38-2.29.38-.04,0-.08,0-.12,0,0,.04,0,.08-.01.12-.04.22-.19.39-.39.48-.06.02-.12.04-.19.04,0,0-.02,0-.03,0-.05,0-.17.04-.32.08-.33.08-.78.2-1.34.27,0,.14-.05.27-.14.39-.05.07-.19.17-.27.2-.63.19-1.28.28-1.96.28-.35,0-.79-.02-1.26-.11.03.12.04.25.05.37.01.34-.25.63-.6.65,0,0,0,0-.01,0-.06,0-.16-.02-.21-.03-.96-.39-1.77-.63-2.55-.81.49.23.96.48,1.41.74.22.13.34.35.33.58.75.24,1.5.59,1.61,1.06.25.08.51.2.74.35.2.14.37.32.51.47.08.09.17.19.26.27.16.14.21.36.14.55.58.43,1.08.97,1.45,1.57.1.16.13.34.1.51,0,.02,0,.04-.02.06.4.53.75,1.09,1.03,1.69.2.43.32.85.44,1.27.08.3.17.59.28.88.1.24,0,.52-.24.63-.07.04-.15.05-.22.05-.17,0-.33-.09-.43-.24-.16-.26-.46-.55-.74-.8l-.18-.17c-.52-.49-1-.86-1.46-1.22-.23-.18-.45-.35-.67-.53-.1.07-.22.1-.35.1-.04,0-.12-.01-.17-.02-.04-.01-.11-.04-.14-.06-.35-.18-.67-.42-.95-.69-.07.02-.14.04-.22.04-.05,0-.22-.04-.27-.06-.57-.25-1.06-.64-1.44-1.13-.08.03-.17.05-.26.05s-.26-.05-.33-.09c-.61-.38-1.15-.85-1.59-1.39-.08.03-.17.05-.26.05-.04,0-.11,0-.15-.02-.07-.02-.18-.07-.23-.11-.78-.58-1.46-1.26-2.04-2.03-.06-.09-.13-.18-.2-.28-.01.55-.03,1.01-.04,1.45-.04,1.26-.08,2.25.05,4.25.05.82.39,2.82.63,4.29.09.57.18,1.05.22,1.37.03.18-.02.37-.15.52-.12.15-.3.23-.49.23h0Z" style="fill:#2a8636;" />
                  <path d="M31.59,1c.21.58.39,1.15.57,1.74.35,1.14.76,2.28.91,3.47.03.27.05.54.04.81,0,.27-.07.49-.07.75.29-.35.42-.41.7-.61,0,0,0,0,0,0,.12,0,.68,1.54.71,1.69.06.31.08.63.05.94-.03.28-.14.53-.17.81.11-.17.24-.32.38-.46.14.32.16.69.22,1.03.06.35.11.71.13,1.07.02.34,0,.68-.05,1.02.03.41,0,.81-.09,1.17.02.07.03.13-.02.17.25-.17.4-.22.57-.26.37.61.44,1.39.38,2.07-.03.29-.09.58-.17.86-.07.26-.13.51-.28.73-.03.04-.06.08-.09.12.03-.04.06-.08.09-.12.11-.14.25-.26.4-.36,0,0,0,0,0,0,.06,0,.36.88.38.98.06.34.07.69.04,1.03-.07.69-.3,1.37-.72,1.92.06-.08.26-.12.35-.16.13-.05.26-.12.39-.19,0,0,0,0,0,0,.03,0,.22.7.23.78.04.31.09.61.07.93-.04.65-.27,1.29-.57,1.87.21-.15.43-.3.64-.44h0s.06.47.05.53c-.02.14-.05.26-.05.41-.01.33-.06.66-.14.99-.17.73-.77,1.48-1.16,2.11.3-.19.63-.34.94-.51.06.67.03,1.26-.04,1.93-.04.32-.11.63-.21.94-.12.34-.25.63-.44.94l.48-.19c0,.51.03,1.02-.05,1.52-.1.63-.28,1.31-.7,1.79l.63-.46c.02.36.05.7-.02,1.05-.04.26-.12.52-.21.77-.12.32-.29.63-.49.9.09-.06.17-.12.27-.17.02,0,.04-.01.06-.01.05,0,.1.03.12.07.01.02.02.05.01.09-.08.67-.43,1.27-.78,1.8-.36.53-.72,1.03-.95,1.61-.24.54-.43,1.11-.58,1.69.38-.73.75-1.46,1.19-2.16.82-1.19,1.48-3.14,1.77-3.59.03-.06.08-.08.13-.08.08,0,.16.06.15.16.04.13.18.52.23.64-.02-.43,0-.86.09-1.28.16-.81.51-1.51.95-2.2.06.2.12.4.19.6.16-.7.33-1.34.68-1.98.08-.14.45-.86.74-.86.04,0,.08.02.12.05.04.04.12.21.14.26.07-1.02.47-2.05,1.15-2.9.04-.05.09-.07.15-.07.04,0,.08.01.12.04.01.01.03.03.04.04.08.11.15.24.21.36.02-.41.1-.82.25-1.2.26-.69.7-1.33,1.28-1.79h.01s.07-.05.11-.05c.05,0,.1.02.14.07.02.02.03.04.03.06.03.1.04.2.06.29.09-.37.22-.73.39-1.07.36-.7.89-1.33,1.54-1.77h.02s.05-.04.07-.04c.04,0,.08.02.11.06,0,.01.1.32.19.64.03.05.06.1.08.16.02-.09.06-.18.11-.26.13-1.13.73-2.26,1.56-3.03h.01s.07-.06.11-.06c.05,0,.1.02.14.06.15.19.26.4.34.62.06-.52.16-.86.3-1.17.14-.28.3-.45.45-.68.16-.21.32-.41.49-.61l.26-.3.13-.15.07-.07.04-.04.03-.03s.02-.02.04-.02c0,0,0,0,0,0,0,0,.04-.02.07-.02,0,0,0,0,0,0h0s.09.02.12.05c.02.03.03.03.02.03,0,0,0,0,0,0,.03.08.2.35.24.81.12-.45.29-.89.51-1.3.61-1.16.93-1.13,1.34-1.5.03-.03.08-.05.12-.05.05,0,.1.02.13.06v.02c.24.32.32.55.37.93.19-.99,1.1-1.65,1.83-2.45.86-.87,1.74-1.71,2.69-2.49,0,0,0,.01,0,.02-.02.13-.04.27-.05.41-.96,2.2-1.34,4.7-2.98,6.24.21-.15.44-.26.7-.32.01,0,.02,0,.04,0,.07,0,.13.04.14.11,0,.02,0,.04,0,.06v.03c-.19.98-.85,1.94-1.82,2.41.14-.04.28-.08.43-.09,0,0,0,0,.01,0,.06,0,.11.04.13.1v.02c.11.47-.12.93-.41,1.32-.64.81-1.23,1.39-2.06,1.86.11-.02.23-.03.34-.04,0,0,0,0,0,0,.13,0,.2.14.13.25-.04.04-1.06,1.72-3.14,1.98.03,0,.06,0,.09,0,.16,0,.33,0,.49.03.4.05,1.28.34,1.07.7-.03.04-.03.04-.07.07-.52.34-1,1.27-2.39,1.56.01,0,.02,0,.03,0,.1,0,.19,0,.29.01.32.03.63.1.93.2.22.07.26.26.09.42-.88.79-1.96,1.45-3.14,1.72.08,0,.16,0,.24,0,.42,0,.85.06,1.26.19.16.05.17.26.03.33,0,0,0,0,0,0,0,0-.14.15-.18.19l-.21.23-.44.45c-.94.78-1.53,1.23-2.35,1.41.15.03.29.06.43.11.09.03.14.12.11.21,0,.02-.02.04-.03.06v.02c-.47.56-1.04,1.01-1.68,1.35-.26.14-.53.24-.8.33.09.01.15.08.15.17,0,.03,0,.05-.02.09-.14.35-.41.64-.7.85-.3.21-.62.37-.95.48-.45.15-.9.23-1.36.28.23.03.46.13.66.28.04.03.05.09.01.13,0,0-.01.01-.01.01-1.73,1.94-4.48,2.53-6.6,4.11.42-.18,4.05-1.89,4.57-1.89.02,0,.04,0,.05,0,.36-.46.82-.83,1.28-1.08.25-.14.52-.25.8-.34h.02s.03-.01.05-.01c.07,0,.14.05.16.13.03.11.03.23.03.34.27-.35.6-.65.96-.89.6-.42,1.27-.71,1.94-.96h.02s.03-.02.05-.02c.05,0,.11.03.13.09.06.16.08.33.07.49.25-.31.54-.58.87-.82.55-.39,1.19-.66,1.85-.78h.02s.02,0,.03,0c.26,0,.16.72,0,1.01.79-.99,1.94-1.75,3.09-2.16h.02s.04-.02.06-.02c.07,0,.13.04.16.11.09.25.09.52.02.76.22-.18.49-.34.76-.46.2-.15.42-.27.65-.38.88-.4,1.62-.39,1.66-.39,0,0,0,0,0,0,.21,0,.16.32.11.53.67-.57,1.63-.92,2.53-.97h.03s0,0,0,0c.08,0,.14.06.15.14,0,.11-.11.34-.18.45,2.9-.78,4.9-1.02,5.01-1.04-1.07,1.01-2.69,2.13-4.53,2.95.3.04.59.11.87.21.11.04.16.15.12.26-.02.05-.05.08-.09.11-.89.52-1.91.81-2.92.81-.13,0-.27,0-.4-.02.18.07.35.15.53.23.11.05.11.2.01.25-.04.02-1.11.74-2.65.74-.19,0-.39-.01-.59-.04.25.11.5.22.75.34.11.05.1.21,0,.26-.59.21-1.38.56-2.5.56-.31,0-.65-.03-1.01-.09.29.16.96.68.68.87-.01,0-.02.01-.04.02h-.02c-.66.23-1.37.35-2.11.35-.41,0-.82-.04-1.23-.12.2.15.4.31.57.49.08.08.05.21-.05.26,0,0,0,0-.01,0-.27,0-1.1.35-2.29.39-.16,0-.33-.03-.49-.05.2.1.38.21.56.35.07.06.08.16.02.23-.02.02-.04.04-.06.05h-.02c-.51.16-1.13.25-1.76.25-.8,0-1.63-.14-2.29-.46.15.14.29.3.38.49.12.23.19.48.2.74,0,.07-.05.13-.12.13,0,0,0,0,0,0-.01,0-.03,0-.05,0-2.2-.89-3.71-1.05-5.62-1.36-.37,0-.75-.03-1.13-.05.26.17.54.32.83.45,1.54.39,3.11,1.05,4.39,1.8h.02c.12.08.07.26-.07.26-.16,0-.32,0-.48,0-.21,0-.42,0-.62,0,1.26.14,3.78,1.04,2.53,1.28.43.06.91.19,1.27.44.27.19.48.49.73.71-.34,0-.64-.05-.97-.08.36.15.71.34,1.02.56.57.41,1.07.93,1.44,1.52v.02c.06.07.04.16-.03.2-.02.01-.05.02-.08.02-.02,0-.03,0-.05,0-.02,0-.03-.01-.05-.02.51.6.94,1.27,1.28,1.98.33.69.43,1.43.71,2.12-.24-.39-.67-.76-1-1.07-1.03-.97-1.9-1.48-2.64-2.2,0,.11-.02.21-.05.32-.02.06-.07.1-.13.1-.01,0-.02,0-.04,0,0,0-.02,0-.03-.01l-.03-.02c-.39-.21-.74-.5-1.03-.84-.07-.08-.13-.16-.19-.25,0,.09,0,.17-.02.26,0,.07-.07.13-.15.13,0,0-.01,0-.02,0-.01,0-.03,0-.04-.01h-.03c-.5-.23-.93-.59-1.26-1.03-.13-.18-.25-.38-.34-.58-.02.14-.06.27-.13.4-.03.05-.08.08-.14.08-.03,0-.06,0-.08-.02,0,0-.02-.01-.02-.01-.81-.49-1.5-1.22-1.93-1.99.02.16.02.32-.02.49-.01.06-.07.1-.13.1-.01,0-.02,0-.03,0-.02,0-.04-.01-.05-.02h-.02c-.73-.55-1.38-1.2-1.92-1.93-.37-.49-.83-1.26-1.09-1.81.03,3.6-.21,4.17,0,7.56.07,1.17.69,4.55.86,5.7.01.09-.06.17-.15.17h0c-1.27-.01-1.13-.03-1.54-.39.02-.98-.21-3.51-.24-4.49-.04-1.51-.07-3.03-.06-4.54,0-.82.03-1.63.06-2.45.03-.68.11-1.34.12-2.02-.45.34-.87.7-1.32,1.03-1.89,1.67-2.75,2.58-3.03,2.58-.08,0-.11-.07-.11-.21-.64,1.24-1.93,1.99-2.26,1.99-.02,0-.04,0-.05-.01-.39.84-1.09,1.47-1.84,1.79h-.03s-.04.02-.06.02c-.06,0-.12-.03-.14-.09-.01-.03-.02-.06,0-.09-.46.84-1.21,1.42-2.12,1.73h-.02s-.03.02-.05.02c-.07,0-.13-.04-.15-.11-.05-.18-.06-.36-.06-.53-.08.1-.17.2-.26.29-1.7,1.6-2.74,1.76-3.8,2.93.04-.1.1-.19.15-.28-.03.05-.07.1-.1.15.59-1.49,1.33-2.96,2.41-3.87-.19.05-.38.09-.58.13-.01,0-.02,0-.04,0-.08,0-.16-.06-.17-.14,0-.03,0-.07,0-.1v-.02c.2-.52.58-.97,1.03-1.28.28-.19.59-.32.91-.39-.08,0-.17-.01-.25-.03-.1-.02-.16-.12-.14-.22,0-.04.03-.07.05-.1h.01c.36-.36.75-.69,1.21-.92.2-.1.42-.18.62-.27-.16-.04-.32-.08-.47-.12,0,0,0,0,0,0,.08,0,.54-.42.62-.47.24-.15.49-.29.76-.4.52-.22,1.02-.36,1.58-.36.04,0,.08,0,.11,0-.22-.02-.45-.08-.65-.2-.08-.05-.09-.06-.04-.14,0-.02.02-.03.03-.04l.27-.24c.6-.54,1.27-.85,2.09-.92-.55-.35,2.24-1.09,2.88-1.23.79-.17,1.58-.29,2.37-.42-.56-.04-.89-.05-1.16-.05-.32,0-.54.01-.92.01-.31,0-.71,0-1.34-.04l-.68-.05-.34-.02h-.16s-.02,0-.03,0c-.01,0-.03,0-.04,0h-.02s-.06.03-.09.03c-.03,0-.05,0-.08-.02-.07-.04-.09-.14-.05-.21v-.02c.09-.1.18-.19.28-.27-.33.11-.68.18-1.03.21-.17.02-.34.02-.52.02-.52,0-1.04-.07-1.53-.23h-.02c-.09-.03-.13-.12-.11-.21v-.02c.09-.17.2-.32.33-.45-.83.32-1.86.66-2.74.66-.11,0-.21,0-.31-.02-.42-.04.11-.76.42-1.04-.44.21-.92.36-1.41.45-.32.05-.64.08-.97.08-.42,0-.85-.05-1.26-.14h-.02c-.08-.02-.14-.11-.12-.19.02-.1.36-.49.83-.75,0,0-.01-.01-.02-.02-.69.26-1.42.43-2.15.49-.23.02-.46.03-.69.03-.68,0-1.35-.08-2-.24h-.02c-.08-.02-.13-.1-.11-.18.02-.1.37-.37.44-.42-.2.06-.39.08-.57.08-.37,0-.72-.08-1.15-.08-.68,0-1.28-.08-1.99-.27h-.02c-.09-.03-.14-.12-.12-.21.03-.12.47-.49.67-.64-.09.03-.19.05-.29.06-.38.11-.78.16-1.18.16-.08,0-.17,0-.25,0-.63-.04-1.25-.18-1.82-.45h-.02c-.09-.05-.12-.15-.08-.24,0-.01.01-.02.02-.03.21-.27.5-.48.8-.62-.02,0-.04,0-.06,0-.21,0-.44-.06-.64-.09-.19-.04-.38-.09-.56-.15-1.77-.27-3.84-.86-5.28-1.32.04,0,.07,0,.11,0,.04,0,.08,0,.12,0,2.28,0,3.62-.92,5.77-.92.47,0,.98.04,1.54.15-.17-.14-.31-.33-.39-.56-.02-.07.02-.14.08-.16h.02s.03,0,.03,0c.21-.03.43-.05.64-.05.93,0,1.88.31,2.63.93-.08-.12-.14-.24-.17-.38-.02-.08.04-.16.12-.16,0,0,0,0,0,0,.02,0,.06,0,.12,0,.38,0,1.57.06,2.71.92-.1-.17-.27-.41-.04-.44,0,0,0,0,0,0,.02,0,.2-.03.48-.03.66,0,1.88.15,2.93,1.15-.08-.2-.15-.39-.22-.59-.05-.14.19-.23.58-.23.87,0,2.5.44,3.49,1.73-.04-.18-.05-.37-.01-.56.01-.07.07-.12.15-.12,0,0,.01,0,.02,0h.02c.69.09,1.35.33,1.95.67.5.29.94.66,1.3,1.1-.14-.18-.09-.5-.08-.7,0,0,.57.21.64.25.14.09.28.16.44.22.2.08.41.15.6.25.7.33,1.29.87,1.85,1.4.6.53,1.3.96,2.01,1.38.33.1.65.21.98.31-.86-.65-1.72-1.29-2.61-1.88-1.01-.68-2.05-1.3-3.13-1.9-.06-.03-.09-.11-.05-.18.02-.04.05-.06.09-.07.26-.05.53-.1.79-.14.01,0,.02,0,.03,0-.18-.03-.35-.09-.52-.16-.42-.1-.84-.25-1.23-.45-.61-.32-1.17-.75-1.63-1.26v-.02c-.07-.07-.07-.17,0-.22.02-.01.04-.03.06-.03.24-.08.48-.08.73-.14-1.16-.59-2.78-.8-3.69-1.77v-.02c-.08-.07-.08-.18,0-.24.02-.02.04-.03.06-.03.23-.09.47-.14.71-.16-.43-.06-.86-.17-1.26-.34-.73-.3-1.25-.76-1.84-1.25,0,0,.02,0,.03,0,.11,0,.4-.17.48-.19.2-.07.42-.1.63-.11-.67-.09-1.3-.38-1.84-.78-.54-.4-.87-.94-1.33-1.42.4-.12.83-.23,1.25-.23.06,0,.12,0,.18,0-.02-.01-.04-.03-.07-.04-.02-.01-.04-.02-.06-.04-.4-.11-.78-.25-1.16-.43-.83-.38-1.27-.74-1.47-.88-.1-.07-.1-.23,0-.3.31-.22.68-.34,1.04-.36-.55-.08-1.07-.34-1.49-.71-.42-.37-.65-.84-.96-1.29.24-.03.48-.07.71-.1.03,0,.06,0,.09,0,.1,0,.21.02.32.02.07,0,.13,0,.19-.03-.6-.35-1.22-.54-1.78-.98-.27-.21-.51-.45-.73-.72-.05-.06-.57-.83-.55-.84.19-.06.36-.08.53-.08.28,0,.55.05.86.05-.78-.28-1.5-1.21-1.89-1.85l-.02.06c-.07-.07-.07-.19,0-.26.03-.02.06-.04.09-.05.13-.02.55-.05.68-.06-.29-.17-.55-.38-.79-.62-.45-.44-.8-.98-1.02-1.58v-.02c-.04-.09,0-.19.1-.23.05-.02.15-.03.28-.03.22,0,.54.04.85.13-.02-.02-.04-.03-.07-.05-1.13-.48-2.12-1.44-2.67-2.56v-.02c-.05-.08-.01-.18.07-.22.06-.03.29-.08.56-.08.12,0,.26.01.4.04-.15-.1-.28-.22-.4-.34-.21-.23-.38-.48-.54-.75-.41-.71-.68-1.5-.92-2.29-.25-.81-.52-1.57-.83-2.35.46.37,2.23,1.94,2.45,2.15.69.65,1.26,1.38,1.62,2.25.04.06.07.12.1.19,0-.14,0-.27.02-.41.01-.08.08-.13.16-.13,0,0,.02,0,.03,0,.02,0,.05.01.07.03h.02c.49.36.91.82,1.23,1.33.26.42.45.88.55,1.36.02-.16.07-.32.17-.47.02-.04.06-.05.1-.05.02,0,.05,0,.07.02,0,0,.02.02.02.02.94.68,1.62,1.83,1.71,3.02.08-.28.23-.55.44-.76.04-.04.08-.06.13-.06.04,0,.09.02.12.05,0,0,.02.02.02.02.62.68.93,1.64.98,2.55.07-.24.18-.46.32-.67.03-.05.08-.07.14-.07.03,0,.06,0,.09.03,0,0,.02.01.02.02l.02.02c.74.74,1.24,1.75,1.36,2.8.06-.26.19-.5.38-.7.03-.03.07-.04.1-.04s.07.01.1.04c0,0,.02.02.02.02.49.5.83,1.13,1.01,1.81.12.46.16.95.1,1.42.1-.26.36-.83.59-.83.03,0,.06.01.09.04l.02.02v.02c.37.4.64.88.78,1.4.09.32.13.65.13.97.07-.14.15-.26.26-.38.04-.04.08-.06.13-.06.04,0,.09.02.12.05v.02s.03.01.03.01c.36.42.64.9.84,1.42,0,.02.47,1.37.48,1.71,0-.22.28-.44.43-.54.06-.04.11-.07.18-.08.01,0,.03,0,.04,0,.18,0,.2.2.23.34.05.19.14.36.22.54.2.43.35.89.46,1.35.09.37.15.75.17,1.13.07-.13.15-.26.25-.37.03-.04.08-.06.13-.06.04,0,.08.01.11.04,0,0,.02.02.02.02v.02c.47.62.82,1.43.92,2.26.02-.03.03-.07.06-.1.03-.04.07-.06.12-.06.03,0,.06,0,.08.03,0,0,.01.01.02.02l.02.02c.47.5.85,1.08,1.12,1.71.24.56.4,1.16.44,1.76.03-.14.06-.28.09-.42,0-.04.04-.07.08-.07,0,0,.01,0,.02,0,.02,0,.04.02.05.03v.02c.3.38,1.54,2.46,1.81,2.85-.51-1.16-1.42-2.29-1.14-3.63.17.1.34.2.51.31-.29-.17-.91-.92-1.31-3.5.3.04.59.15.85.32-.47-.7-.89-1.38-1.1-2.21-.19-.75-.31-1.53-.33-2.3,0,.03.53.07.6.09-.35-.38-.62-.83-.8-1.32-.15-.43-.19-.85-.23-1.29-.05-.46-.1-.88,0-1.34.17.13.35.3.55.37.16.06.3.09.44.19-.36-.4-.81-.88-.95-1.4-.14-.54-.26-1.1-.13-1.64.02-.1.05-.2.09-.3.02,0,.03,0,.05,0,.25,0,.49.06.72.17-.44-.39-.77-.93-.96-1.49-.17-.55-.24-1.14-.14-1.71.02-.1.04-.2.07-.3.03,0,.06-.02.09-.02.09-.02.19-.02.28-.02.08,0,.16,0,.24.01.13.02.26.06.38.11-.14-.12-.25-.25-.35-.4-.21-.3-.35-.63-.45-.98-.17-.7-.04-1.34-.06-2.04,0,.05.68.2.77.25.04.02.08.04.11.06-.22-.14-.25-.64-.33-.87-.21-.58-.27-1.22-.18-1.83.01-.08.03-.17.05-.25.06-.29.09-.58.29-.82,0,0,.56.29.59.31-.47-1.15-.65-2.5-.01-3.58.18.12.34.25.5.39-.26-.51-.35-1.09-.28-1.65.03-.26.09-.54.2-.78.11-.24.12-.5.18-.76.01-.06.03-.12.08-.15.02-.01.04-.02.06-.02.05,0,.1.02.14.04.14.07.29.12.42.21.08.05.14.13.24.15.09-.31,0-.79,0-1.12,0-.43.01-.87.05-1.3.08-1.16.4-2.3.7-3.42.09-.34.14-.71.19-1.06M28.38,30.49h0s0,0,0,0M60.67,35.1h0M31.59,0s-.06,0-.09,0c-.45.04-.82.38-.9.83l-.04.27c-.04.25-.07.49-.13.69-.32,1.17-.64,2.36-.73,3.61-.03.35-.04.72-.05,1.1-.12.02-.23.06-.34.12-.29.16-.48.43-.57.78-.03.11-.05.22-.07.32-.02.11-.04.22-.06.28-.13.31-.22.66-.27,1.06-.03.26-.04.52-.02.78-.02.03-.04.06-.06.1-.52.87-.67,1.94-.46,3.1-.01.01-.02.03-.04.04-.32.4-.41.82-.47,1.13l-.02.11v.05c-.03.08-.05.17-.06.25-.09.57-.07,1.16.05,1.72-.27.18-.44.49-.43.84,0,.2,0,.4-.02.59-.02.5-.05,1.06.1,1.68.03.11.07.22.1.32-.13.12-.23.27-.28.44-.04.14-.08.28-.1.42-.12.68-.06,1.43.17,2.17.07.21.15.41.24.59,0,.01-.01.03-.02.04-.07.16-.12.32-.15.49-.18.73-.02,1.46.14,2.09.01.04.02.08.03.12-.04.08-.07.17-.09.26-.12.58-.07,1.1-.02,1.56v.08c.06.51.11.99.29,1.52.07.18.14.35.22.52-.05.12-.08.26-.07.4.02.81.14,1.66.36,2.52.1.39.23.75.39,1.08-.14.21-.2.46-.16.71,0,.02,0,.04,0,.06-.05-.05-.1-.1-.16-.13,0,0,0,0-.01,0-.19-.68-.51-1.34-.92-1.89-.06-.09-.12-.14-.17-.19-.1-.09-.22-.17-.35-.22,0,0,0-.01,0-.02-.12-.52-.3-1.03-.52-1.53l-.07-.15c-.04-.08-.08-.17-.09-.21-.23-1.02-.98-1.1-1.21-1.1-.01,0-.03,0-.04,0-.08-.25-.15-.43-.15-.44-.24-.63-.58-1.21-1.01-1.72-.01-.02-.04-.05-.05-.06-.01-.01-.04-.04-.06-.06-.11-.1-.24-.18-.38-.23-.2-.62-.52-1.2-.95-1.68-.02-.02-.06-.06-.08-.08-.02-.02-.06-.05-.08-.07-.14-.11-.31-.19-.48-.23-.24-.81-.66-1.54-1.23-2.12-.01-.01-.04-.04-.06-.05-.17-.17-.43-.29-.71-.31-.29-.65-.7-1.26-1.2-1.76-.08-.07-.13-.12-.19-.16-.14-.09-.29-.15-.44-.18-.21-.57-.52-1.08-.9-1.5,0,0-.04-.04-.04-.05-.24-.23-.53-.35-.84-.35-.01,0-.03,0-.04,0-.37-.8-.95-1.5-1.65-2.01,0,0-.04-.03-.05-.03-.11-.08-.24-.13-.37-.16-.07-.13-.14-.27-.22-.4-.4-.63-.92-1.18-1.5-1.6-.17-.12-.34-.19-.51-.22,0,0-.02,0-.03,0-.35-.57-.8-1.11-1.36-1.64-.24-.23-2.04-1.82-2.52-2.2-.18-.15-.4-.22-.62-.22-.21,0-.41.06-.59.19-.36.27-.5.75-.34,1.17.34.89.59,1.6.8,2.29.25.82.55,1.69,1.01,2.49,0,.01.01.02.02.03-.28.34-.36.83-.15,1.26.35.72.85,1.38,1.44,1.92-.07.24-.06.5.03.75.23.61.57,1.19,1.01,1.68-.05.12-.07.25-.07.39,0,.32.11.62.33.85.03.03.05.05.08.08.1.14.21.31.35.48-.07.09-.12.2-.15.31-.05.17-.18.64.75,1.75.26.31.55.6.87.86.04.03.08.06.11.09-.07.27-.02.56.14.8.07.1.14.21.2.31.24.37.5.79.93,1.16.03.03.06.05.09.08-.04.12-.07.25-.07.38,0,.38.18.74.48.96l.14.1c.17.12.43.31.8.52-.06.31.04.64.26.87.14.15.27.31.39.46.29.35.61.74,1.06,1.08.1.07.19.14.29.2-.02.31.1.62.36.83l.12.1c.53.44,1.07.9,1.81,1.24.04.22.14.43.3.6.73.78,1.71,1.15,2.6,1.46,0,.09.02.18.04.26-.1-.02-.2-.03-.3-.05-.04,0-.13-.01-.17-.01-.13,0-.26.02-.37.06-1.16-.85-2.49-1.11-3.24-1.11-.4,0-.72.07-.97.2-.91-.44-1.79-.53-2.32-.53-.28,0-.48.02-.56.03-.02,0-.03,0-.05,0-.07,0-.14.02-.21.04-.95-.45-1.83-.53-2.34-.53h-.11s0,0-.01,0c0,0-.01,0-.02,0-.14,0-.27.03-.39.08-.67-.31-1.41-.47-2.16-.47-.27,0-.54.02-.81.07-.03,0-.08.01-.11.02-.02,0-.06.02-.09.02-.28.09-.5.28-.64.52-.1,0-.2,0-.29,0-1.18,0-2.13.25-3.04.48-.87.23-1.69.44-2.72.44h-.11s-.06,0-.1,0c0,0-.01,0-.02,0-.49,0-.91.35-.99.84-.08.49.21.96.68,1.12,1.09.35,3.11.96,5,1.28,0,.15.02.3.07.44.11.29.32.53.61.66.69.32,1.42.5,2.2.55.08,0,.15,0,.23,0,0,.02.02.03.03.05.16.27.41.46.71.54.76.21,1.45.3,2.26.31.15,0,.29.01.43.03,0,0,0,.01.01.02.16.26.41.45.71.52.75.18,1.5.27,2.26.27.26,0,.51-.01.77-.03.15-.01.3-.03.45-.05.16.24.41.42.71.49.5.11,1,.17,1.5.17.32,0,.63-.02.95-.07.18.32.51.54.91.58.14.01.27.02.42.02.59,0,1.2-.12,1.78-.28.12.11.27.2.45.26.6.19,1.22.28,1.85.28.14,0,.27,0,.41-.01-.08.06-.15.12-.21.18-.75.17-1.41.52-2.02,1.07l-.27.24c-.1.09-.17.18-.24.29-.02.03-.03.05-.04.08-.16.05-.33.12-.5.19-.31.13-.62.3-.9.48-.04.03-.15.11-.28.22-.09.08-.2.17-.28.22.02-.01.2-.13.48-.13v.24s-.09.04-.13.05c-.16.07-.32.13-.47.21-.61.31-1.1.74-1.46,1.08-.17.16-.28.35-.34.56-.04.02-.08.05-.12.08-.64.44-1.14,1.07-1.4,1.76-.09.23-.1.45-.06.67.01.06.03.13.06.19-.58.79-1.11,1.8-1.63,3.12,0,.02-.02.05-.03.08,0,0,0,0,0,0-.21.45-.06.98.35,1.25.17.11.36.17.55.17.27,0,.54-.11.74-.33.43-.48.87-.76,1.43-1.11.47-.3,1.03-.66,1.69-1.21.13.05.27.07.41.07.13,0,.25-.02.38-.06.93-.32,1.69-.84,2.25-1.53.06-.01.12-.03.18-.06.89-.38,1.64-1.04,2.13-1.84.67-.26,1.49-.89,2.1-1.69.42-.12.85-.52,1.82-1.4.3-.28.66-.6,1.07-.97-.03.7-.05,1.44-.06,2.26-.01,1.35,0,2.8.06,4.58.01.41.06,1.07.1,1.76.07,1,.15,2.13.14,2.68,0,.29.11.56.33.76l.1.09c.57.55.93.55,2.1.56.35,0,.66-.15.88-.4.22-.25.32-.59.26-.92-.05-.32-.13-.81-.23-1.38-.23-1.37-.58-3.44-.63-4.23-.12-1.98-.09-2.96-.05-4.2,0-.03,0-.06,0-.09.45.49.94.93,1.46,1.32.14.1.28.17.43.21.08.02.18.03.26.03.02,0,.05,0,.07,0,.43.48.94.91,1.49,1.25.01,0,.04.03.05.03.17.1.37.15.57.15.02,0,.04,0,.07,0,.4.44.88.79,1.41,1.02.14.06.25.09.37.1.04,0,.09,0,.13,0,.02,0,.04,0,.06,0,.26.23.55.43.85.59,0,0,.04.02.05.03.07.04.14.06.22.08.08.02.21.04.29.04s.18-.01.26-.03c.15.12.3.23.45.35.45.35.92.71,1.42,1.18l.18.17c.24.22.53.49.65.69.19.31.52.48.86.48.15,0,.3-.03.44-.1.47-.23.68-.78.48-1.27-.1-.25-.18-.53-.26-.82-.12-.42-.25-.89-.47-1.35-.27-.56-.58-1.09-.95-1.6.02-.23-.04-.47-.17-.68-.37-.58-.83-1.11-1.36-1.54-.01-.27-.13-.53-.35-.71-.08-.07-.15-.15-.22-.23-.15-.17-.34-.37-.59-.55-.19-.13-.41-.24-.65-.34-.15-.27-.41-.49-.73-.68.23-.05.42-.16.57-.33.15-.16.25-.37.28-.58.26.02.51.03.72.03.72,0,1.43-.1,2.04-.28.03,0,.06-.02.09-.03.2-.08.36-.2.49-.35.06-.08.12-.17.16-.25.44-.07.81-.16,1.06-.23.1-.03.18-.05.24-.06,0,0,0,0,.01,0,.12,0,.22-.03.34-.08.27-.11.48-.31.6-.56.74-.03,1.47-.16,2.17-.4.12-.04.21-.09.29-.14.23-.15.39-.38.46-.64.79-.09,1.4-.31,1.88-.49l.25-.09s.06-.02.09-.04c.26-.12.45-.33.56-.58.91-.17,1.61-.52,2-.76h0s.02-.01.04-.02c.17-.1.31-.25.4-.41.81-.14,1.61-.43,2.36-.86.25-.14.43-.37.53-.64.08-.22.09-.46.04-.69,1.22-.69,2.34-1.49,3.21-2.32.21-.18.34-.45.34-.75,0-.55-.44-1-.99-1,0,0,0,0-.01,0-.02,0-.04,0-.06,0-.04,0-.07,0-.11.01-.76.11-2.15.33-3.99.78-.21-.21-.5-.35-.82-.35-.02,0-.04,0-.06,0-.74.04-1.48.23-2.13.55-.15-.07-.32-.11-.49-.11-.02,0-.04,0-.06,0-.87.03-1.58.28-2.02.48-.13.06-.25.12-.37.19-.21-.2-.49-.31-.79-.31-.13,0-.26.02-.39.07-.81.29-1.58.71-2.26,1.22-.16-.08-.34-.13-.53-.13-.06,0-.14,0-.2.02-.82.14-1.6.47-2.28.95-.05.04-.1.07-.15.11-.11-.03-.23-.05-.34-.05-.02,0-.04,0-.07,0,0-.01,0-.02.01-.03.07-.03.14-.07.22-.11.76-.41,1.44-.96,1.97-1.6.11-.13.18-.27.22-.41.02-.06.03-.12.04-.17.48-.28.94-.65,1.45-1.08.03-.02.05-.05.08-.07l.44-.45.23-.25.1-.1c.3-.24.47-.62.43-1.02,0-.1-.03-.2-.06-.29.43-.27.85-.59,1.24-.95.35-.32.51-.76.42-1.19-.02-.11-.06-.21-.11-.31.12-.11.23-.22.33-.32.11-.11.24-.24.3-.28.03-.02.05-.04.08-.06.12-.09.22-.2.3-.34.21-.36.23-.78.05-1.15,0-.02-.02-.03-.02-.05.53-.38,1-.85,1.39-1.41h0s.03-.03.04-.05c.12-.18.19-.39.2-.6.46-.38.89-.84,1.34-1.42.49-.65.71-1.28.65-1.89.61-.62,1.05-1.43,1.21-2.3.03-.19.03-.36-.01-.52-.02-.06-.04-.12-.06-.18.61-1,1-2.13,1.38-3.23.23-.66.46-1.34.73-1.96.04-.1.07-.21.08-.32,0-.1.02-.21.04-.31.03-.17.02-.35-.04-.51,0-.02-.02-.04-.02-.06-.11-.28-.35-.5-.65-.59-.09-.03-.19-.04-.28-.04-.23,0-.45.08-.64.23-.85.7-1.7,1.49-2.76,2.56-.18.2-.35.36-.51.52-.22.22-.46.46-.68.71-.14-.05-.28-.08-.43-.08-.29,0-.57.11-.79.3-.07.06-.14.11-.2.15-.41.28-.79.6-1.29,1.5-.02,0-.03,0-.05,0-.01,0-.03,0-.04,0-.2,0-.38.05-.54.13-.04.02-.11.07-.15.09-.02.01-.03.02-.05.04-.02.01-.07.05-.08.07l-.04.04-.1.1-.17.18-.27.31c-.19.23-.36.44-.52.65-.01.02-.02.03-.04.05-.04.06-.08.11-.12.16-.11.15-.25.33-.38.57-.27.02-.52.13-.71.31-.64.6-1.16,1.36-1.49,2.18-.19.02-.37.08-.52.19-.8.55-1.45,1.29-1.89,2.16-.03.05-.05.1-.07.15-.14.04-.27.11-.39.21-.72.57-1.27,1.34-1.61,2.23-.02.06-.04.12-.06.18-.21.07-.4.2-.54.38-.55.69-.96,1.5-1.18,2.35-.46.23-.79.73-1.06,1.23-.18.34-.33.67-.44.99-.16.08-.31.2-.41.36-.02.02-.03.05-.05.07,0,0,0-.01,0-.02.07-.44.06-.85.06-1.24,0-.14,0-.28,0-.42,0-.15-.03-.3-.09-.43,0,0,0,0,0,0,.13-.37.22-.76.26-1.15.09-.82.11-1.46.05-2.13-.01-.15-.06-.29-.13-.42.14-.28.25-.56.33-.86.09-.38.15-.78.16-1.18,0-.05.01-.1.02-.15,0-.06.02-.11.03-.17,0,0,.07-.83-.24-1.25.06-.26.1-.51.12-.76.02-.37-.02-.7-.05-.99l-.02-.13c-.07-.56-.21-.98-.41-1.25.08-.29.13-.58.16-.88.04-.44.03-.88-.05-1.29-.05-.3-.18-.83-.44-1.24.06-.26.1-.49.12-.72.06-.73.03-1.78-.52-2.68-.08-.13-.18-.23-.3-.31,0-.07,0-.14,0-.21.05-.37.06-.75.04-1.12-.02-.35-.06-.73-.14-1.19-.01-.07-.02-.15-.03-.22-.04-.3-.1-.67-.25-1.03-.03-.07-.07-.14-.12-.21,0-.29-.02-.58-.08-.87-.05-.26-.36-1.05-.37-1.08-.25-.64-.48-1.21-1-1.38,0-.04,0-.08-.01-.12-.13-1.09-.46-2.11-.77-3.09l-.17-.55c-.2-.66-.4-1.24-.59-1.77-.14-.4-.52-.66-.94-.66h0Z" style="fill:#2a8636;" />
                </g>
                <g>
                  <path d="M57.02,38.27c-.28-.1-.58-.17-.87-.21,1.83-.82,3.46-1.94,4.53-2.95-.11.02-2.11.27-5.01,1.04.07-.11.18-.34.18-.45,0-.08-.07-.15-.16-.14h-.03c-.9.05-1.86.4-2.53.97.05-.21.1-.54-.12-.53-.04,0-.78-.01-1.66.39-.23.11-.44.23-.65.38-.27.12-.53.28-.76.46.07-.24.07-.51-.02-.76-.03-.09-.13-.13-.21-.1h-.02c-1.15.42-2.3,1.18-3.09,2.16.16-.31.26-1.06-.04-1.01h-.02c-.66.12-1.3.39-1.85.78-.33.23-.62.51-.87.82,0-.16,0-.33-.07-.49-.03-.07-.1-.1-.17-.08h-.02c-.67.25-1.33.55-1.94.97-.36.25-.69.55-.96.89,0-.11,0-.23-.03-.34-.03-.1-.12-.15-.21-.12h-.02c-.28.09-.54.2-.8.35-.46.24-.92.62-1.28,1.08-.28-.14-4.18,1.7-4.62,1.89,2.11-1.58,4.86-2.16,6.6-4.11,0,0,0-.01.01-.01.03-.04.03-.1-.01-.13-.19-.16-.42-.25-.66-.28.46-.05.91-.13,1.36-.28.33-.11.66-.27.95-.48.29-.22.55-.5.7-.85.02-.04.02-.06.02-.09,0-.09-.07-.16-.15-.17.28-.09.55-.2.8-.33.63-.34,1.21-.8,1.66-1.35v-.02s.04-.03.04-.06c.03-.09-.02-.19-.11-.21-.14-.05-.29-.08-.43-.11.82-.18,1.41-.62,2.35-1.41l.44-.45.21-.23s.21-.23.17-.19c.14-.07.13-.29-.03-.33-.49-.15-1-.21-1.5-.19,1.17-.27,2.25-.93,3.14-1.72.17-.16.14-.35-.09-.42-.3-.1-.61-.17-.93-.2-.11-.01-.21-.01-.32-.01,1.39-.28,1.87-1.22,2.39-1.56.04-.03.04-.03.07-.07.21-.36-.67-.64-1.07-.7-.19-.02-.39-.03-.58-.03,2.07-.26,3.09-1.94,3.14-1.98.07-.11,0-.25-.14-.25-.12,0-.23.02-.34.04.83-.48,1.42-1.05,2.06-1.86.29-.38.53-.85.42-1.32v-.02c-.02-.06-.08-.11-.14-.1-.15.01-.29.05-.43.09.96-.46,1.63-1.42,1.81-2.41v-.03s0-.04,0-.06c-.02-.08-.1-.13-.18-.11-.25.06-.49.17-.7.32,1.64-1.54,2.02-4.04,2.98-6.24.01-.14.03-.28.05-.41,0,0,0-.01,0-.02-.95.78-1.83,1.63-2.69,2.49-.73.79-1.64,1.46-1.83,2.45-.05-.37-.14-.61-.36-.93v-.02c-.08-.07-.19-.08-.26-.01-.41.37-.73.34-1.34,1.5-.22.41-.4.85-.51,1.3-.04-.45-.21-.73-.24-.81,0,0,0,0-.02-.03-.02-.03-.07-.05-.12-.05-.04,0-.09.02-.08.02-.01,0-.03.01-.04.02l-.03.03-.04.04-.07.07-.13.15-.26.3c-.17.2-.33.41-.49.61-.15.22-.31.39-.45.68-.14.31-.24.65-.3,1.17-.08-.22-.19-.43-.34-.62-.07-.08-.18-.08-.25-.02h-.01c-.82.78-1.42,1.9-1.56,3.04-.05.08-.09.17-.11.26-.03-.05-.05-.11-.08-.16-.08-.32-.18-.63-.19-.64-.04-.06-.12-.08-.18-.03h-.02c-.65.46-1.18,1.08-1.54,1.78-.17.34-.31.7-.39,1.07-.02-.1-.04-.2-.06-.29,0-.02-.02-.04-.03-.06-.06-.08-.17-.09-.25-.03h-.01c-.58.48-1.02,1.11-1.28,1.81-.14.39-.23.8-.25,1.2-.06-.12-.13-.25-.21-.36,0-.01-.02-.03-.04-.04-.08-.06-.2-.05-.26.03-.68.85-1.08,1.88-1.15,2.9-.02-.05-.1-.22-.14-.26-.29-.28-.78.65-.86.81-.35.64-.52,1.28-.68,1.98-.06-.2-.12-.4-.19-.6-.44.69-.78,1.39-.95,2.2-.08.42-.11.85-.09,1.28-.04-.12-.18-.51-.23-.64,0-.16-.21-.22-.29-.08-.29.45-.96,2.4-1.77,3.59-.44.7-.81,1.43-1.19,2.16.15-.58.34-1.14.58-1.69.23-.57.59-1.07.95-1.61.36-.53.7-1.13.78-1.8,0-.04,0-.07-.01-.09-.03-.07-.11-.09-.18-.06-.1.05-.18.11-.27.17.2-.28.37-.58.49-.9.09-.25.17-.51.21-.77.06-.36.04-.69.02-1.05l-.63.46c.43-.49.61-1.16.7-1.79.08-.51.04-1.01.05-1.52l-.48.19c.19-.31.32-.6.44-.94.1-.3.18-.62.21-.94.08-.67.1-1.26.04-1.93-.31.17-.64.32-.94.51.39-.64.98-1.38,1.16-2.11.08-.32.12-.65.14-.99,0-.14.04-.27.05-.41,0-.05-.05-.53-.05-.53-.21.15-.43.3-.64.44.29-.58.52-1.21.57-1.87.02-.32-.03-.62-.07-.93-.01-.08-.21-.79-.23-.78-.13.07-.26.13-.39.19-.09.04-.29.08-.35.16.41-.55.65-1.23.72-1.92.03-.34.02-.69-.04-1.03-.02-.1-.33-1.01-.38-.98-.19.13-.35.29-.49.47.22-.25.28-.54.37-.85.08-.28.15-.57.17-.86.06-.68,0-1.46-.38-2.07-.16.04-.31.08-.57.26.05-.03.04-.1.02-.17.1-.36.12-.77.09-1.17.05-.34.07-.68.05-1.02-.02-.36-.07-.72-.13-1.07-.06-.34-.08-.71-.22-1.03-.14.14-.27.3-.38.46.02-.28.14-.53.17-.81.03-.31.01-.63-.05-.94-.03-.15-.61-1.76-.71-1.69-.28.2-.41.26-.7.61,0-.26.06-.48.07-.75,0-.27,0-.54-.04-.81-.15-1.19-.55-2.33-.91-3.47-.18-.58-.37-1.16-.57-1.74-.06.35-.1.72-.19,1.06-.3,1.12-.62,2.26-.7,3.42-.03.43-.04.86-.05,1.3,0,.33.1.81,0,1.12-.09-.02-.15-.1-.24-.15-.13-.08-.28-.14-.42-.21-.06-.03-.14-.06-.2-.03-.05.03-.07.09-.08.15-.06.26-.08.52-.18.76-.11.24-.17.52-.2.78-.07.57.02,1.14.28,1.65-.15-.14-.32-.27-.5-.39-.64,1.07-.46,2.43.01,3.58-.04-.03-.59-.31-.59-.31-.19.24-.23.53-.29.82-.02.08-.04.17-.05.25-.09.61-.03,1.25.18,1.83.09.23.11.73.33.87-.03-.02-.07-.04-.11-.06-.09-.04-.77-.2-.77-.25.01.7-.12,1.34.06,2.04.1.34.24.68.45.98.1.15.22.28.35.4-.12-.05-.25-.09-.38-.11-.17-.02-.35-.02-.52,0-.03,0-.06.01-.09.02-.03.1-.06.19-.07.3-.1.56-.04,1.16.14,1.71.19.57.51,1.1.96,1.49-.23-.1-.48-.17-.72-.17-.02,0-.03,0-.05,0-.04.1-.07.19-.09.3-.14.54-.01,1.1.13,1.64.14.52.59,1,.95,1.4-.15-.11-.28-.13-.44-.19-.2-.08-.38-.24-.55-.37-.1.46-.04.88,0,1.34.04.45.08.86.23,1.29.18.49.45.94.8,1.32-.07-.02-.6-.06-.6-.09.02.77.14,1.55.33,2.3.21.83.63,1.51,1.1,2.21-.25-.17-.54-.28-.85-.32.4,2.58,1.02,3.33,1.31,3.5-.17-.1-.34-.2-.51-.31-.29,1.35.62,2.47,1.14,3.63-.26-.39-1.51-2.48-1.8-2.85v-.02s-.04-.03-.06-.03c-.05,0-.09.02-.1.07-.03.14-.06.28-.09.42-.04-.61-.19-1.2-.44-1.76-.27-.63-.65-1.21-1.12-1.71l-.02-.02s-.01-.01-.02-.02c-.06-.05-.15-.03-.2.03-.02.03-.04.07-.06.1-.1-.83-.45-1.64-.9-2.26v-.02s-.03-.02-.04-.02c-.07-.06-.18-.06-.24.01-.1.11-.18.24-.25.37-.02-.38-.08-.76-.17-1.13-.11-.46-.26-.92-.46-1.35-.08-.18-.18-.35-.22-.54-.04-.15-.06-.36-.27-.33-.07,0-.12.05-.18.08-.16.1-.44.32-.43.54-.01-.34-.48-1.7-.48-1.71-.19-.51-.48-1-.84-1.42h-.01s-.01-.03-.01-.03c-.07-.07-.19-.06-.26.01-.1.11-.19.24-.26.38,0-.33-.04-.66-.13-.97-.15-.51-.41-1-.77-1.4v-.02s-.04-.02-.04-.02c-.25-.2-.58.5-.69.79.06-.47.02-.96-.1-1.42-.18-.67-.53-1.31-1.01-1.81,0,0-.02-.02-.02-.02-.06-.06-.15-.06-.21,0-.2.2-.32.44-.38.7-.11-1.04-.61-2.06-1.36-2.8l-.02-.02s-.02-.01-.02-.02c-.07-.05-.18-.03-.23.05-.14.21-.25.44-.32.67-.05-.92-.36-1.87-.98-2.55,0,0-.01-.01-.02-.02-.07-.07-.19-.07-.26,0-.21.22-.36.48-.44.76-.09-1.18-.76-2.34-1.71-3.02,0,0-.02-.02-.02-.02-.06-.04-.13-.02-.17.03-.1.14-.15.3-.17.47-.1-.48-.29-.94-.55-1.36-.32-.51-.74-.96-1.23-1.31h-.02s-.04-.04-.07-.04c-.09-.01-.17.04-.18.13-.02.14-.02.27-.02.41-.03-.06-.06-.12-.1-.19-.36-.87-.93-1.6-1.62-2.25-.22-.21-2-1.78-2.45-2.15.3.78.58,1.55.83,2.35.24.79.51,1.57.92,2.29.16.26.33.52.54.75.12.12.25.25.4.34-.45-.08-.87,0-.96.05-.08.04-.11.14-.07.22v.02c.56,1.12,1.54,2.08,2.68,2.56.02.02.04.03.07.05-.5-.15-.99-.15-1.13-.1-.09.03-.14.14-.1.23v.02c.23.59.59,1.13,1.03,1.58.24.24.51.44.79.62-.13,0-.55.03-.68.06-.03,0-.07.02-.09.05-.07.07-.08.19,0,.26l.02-.06c.39.64,1.11,1.57,1.89,1.85-.49,0-.89-.14-1.39.03-.02,0,.5.78.55.84.22.26.46.5.73.72.55.45,1.18.63,1.78.98-.19.07-.41,0-.61.02-.24.03-.48.07-.71.1.31.45.54.92.96,1.29.42.37.94.63,1.49.71-.36.02-.73.14-1.04.36-.11.08-.1.23,0,.3.2.13.64.49,1.47.88.37.17.76.32,1.16.43.02.01.04.02.06.04.02.01.04.02.07.04-.48-.04-.98.09-1.43.23.45.48.78,1.02,1.33,1.42.54.4,1.17.69,1.84.78-.21,0-.43.04-.63.11-.08.03-.44.24-.51.19.59.49,1.11.95,1.84,1.25.4.17.83.28,1.26.34-.24.02-.48.07-.71.16-.02,0-.04.02-.06.03-.07.06-.07.17,0,.24v.02c.92.97,2.54,1.18,3.7,1.77-.24.06-.49.06-.73.14-.02,0-.04.02-.06.03-.07.06-.07.16-.01.22v.02c.47.51,1.03.94,1.64,1.26.39.2.8.35,1.23.45.17.08.34.14.52.16-.01,0-.02,0-.03,0-.27.04-.53.09-.79.14-.04,0-.07.03-.09.07-.04.06-.01.14.05.18,1.08.6,2.12,1.22,3.13,1.9.89.59,1.75,1.23,2.61,1.88-.33-.1-.65-.21-.98-.31-.71-.42-1.4-.85-2.01-1.38-.56-.53-1.15-1.07-1.85-1.4-.2-.09-.4-.17-.6-.25-.16-.06-.29-.13-.44-.22-.07-.04-.64-.25-.64-.25-.01.2-.06.52.08.7-.36-.44-.81-.81-1.3-1.1-.6-.35-1.27-.58-1.95-.67h-.02c-.08-.01-.15.04-.16.12-.03.19-.02.38.01.56-1.42-1.87-4.22-1.95-4.06-1.5.07.2.14.4.22.59-1.51-1.44-3.38-1.12-3.42-1.13-.23.03-.05.27.04.44-1.36-1.02-2.79-.91-2.84-.92-.08,0-.14.08-.12.16.03.14.1.26.17.38-.92-.76-2.16-1.06-3.27-.88h-.03s-.02,0-.02,0c-.07.02-.11.1-.08.16.07.22.21.42.39.56-3.19-.61-4.57.81-7.43.77-.04,0-.07,0-.11,0,1.44.46,3.52,1.05,5.28,1.32.18.06.37.11.56.15.22.04.46.1.69.09-.31.13-.59.34-.8.62,0,0-.01.02-.02.03-.04.09,0,.19.08.23h.02c.57.27,1.19.42,1.82.46.48.03.96-.02,1.42-.15.1-.02.19-.04.29-.06-.2.15-.64.53-.67.64-.02.09.03.18.12.2h.02c.71.2,1.32.27,1.99.27.63,0,1.11.19,1.72,0-.07.05-.42.32-.44.42-.02.08.03.16.11.18h.02c.88.22,1.79.29,2.69.22.74-.06,1.47-.22,2.15-.49,0,0,.01.01.02.02-.48.25-.81.64-.83.75-.02.08.03.17.12.19h.02c.73.17,1.49.19,2.23.07.49-.08.97-.23,1.41-.45-.31.29-.84,1-.42,1.04.94.1,2.11-.28,3.05-.64-.13.13-.24.28-.32.45v.02c-.04.09.01.18.1.21h.02c.66.21,1.36.27,2.05.21.35-.03.7-.11,1.03-.21-.1.08-.19.17-.27.27v.02c-.06.07-.04.17.04.21.05.03.12.03.17,0h.02s.05,0,.07,0h.16s.34.03.34.03l.68.05c2.08.11,1.7-.04,3.43.08-.79.14-1.58.26-2.37.42-.65.14-3.44.88-2.88,1.23-.82.07-1.49.38-2.09.92l-.27.24s-.02.03-.03.04c-.05.08-.04.09.04.14.2.11.42.18.65.2-.61-.02-1.14.12-1.7.36-.26.11-.52.25-.76.4-.08.05-.56.49-.63.47.16.04.32.08.47.12-.21.09-.42.17-.62.27-.47.24-.86.57-1.21.91h-.01s-.05.07-.05.11c-.02.1.04.2.14.22.08.02.17.02.25.03-.32.07-.63.2-.91.39-.45.31-.83.76-1.02,1.28v.02s-.02.06-.02.1c.02.1.11.16.21.14.19-.04.38-.08.58-.13-1.08.91-1.82,2.37-2.41,3.87.04-.05.07-.1.1-.15-.05.09-.11.18-.15.28,1.06-1.16,2.1-1.33,3.8-2.93.09-.09.18-.19.26-.29,0,.18,0,.35.06.53.03.08.12.13.2.1h.02c.91-.32,1.66-.9,2.12-1.73,0,.03,0,.06,0,.09.03.08.12.11.2.08h.03c.75-.33,1.45-.96,1.84-1.8.2.11,1.64-.65,2.32-1.98-.01.66.73-.25,3.14-2.37.45-.34.87-.69,1.32-1.03,0,.68-.09,1.34-.12,2.02-.04.82-.06,1.63-.06,2.45-.01,1.51.01,3.03.06,4.54.03.98.26,3.5.24,4.49.4.37.26.38,1.54.39.09,0,.16-.08.15-.17-.17-1.15-.79-4.53-.86-5.7-.21-3.39.03-3.96,0-7.56.26.55.72,1.32,1.09,1.81.55.73,1.19,1.38,1.92,1.92h.02s.03.03.05.03c.07.02.15-.03.16-.1.04-.16.04-.33.02-.49.44.77,1.13,1.49,1.93,1.99,0,0,.02.01.02.01.08.04.18.02.22-.06.07-.13.12-.26.13-.4.09.2.21.4.34.58.33.43.77.79,1.26,1.01h.03s.03.02.04.02c.08,0,.15-.05.16-.13.01-.08.02-.17.02-.26.06.09.12.17.19.25.29.34.64.63,1.03.84l.03.02s.02,0,.03.01c.07.02.15-.02.17-.1.03-.1.04-.21.05-.32.74.72,1.61,1.23,2.64,2.2.33.31.77.68,1,1.07-.28-.69-.38-1.43-.71-2.12-.34-.71-.77-1.38-1.28-1.98.02,0,.03.01.05.02.04.01.09.01.13-.01.07-.04.09-.13.05-.2v-.02c-.39-.59-.88-1.11-1.46-1.52-.32-.23-.66-.41-1.02-.56.33.03.63.07.97.08-.26-.22-.46-.52-.73-.71-.36-.25-.85-.38-1.27-.44,1.25-.24-1.27-1.14-2.53-1.28.37,0,.74.01,1.11,0,.13,0,.18-.18.07-.25h-.02c-1.28-.77-2.85-1.42-4.39-1.81-.29-.13-.56-.28-.83-.45.37.02.75.05,1.13.05,1.91.31,3.41.47,5.62,1.36.03,0,.04.01.06,0,.07,0,.12-.06.12-.13,0-.26-.08-.52-.2-.74-.1-.19-.23-.35-.38-.49,1.18.56,2.88.56,4.05.22h.02s.05-.03.06-.06c.06-.07.05-.17-.02-.23-.17-.14-.36-.25-.56-.35.16.02.33.04.49.05,1.22-.04,2.05-.4,2.31-.39.1-.04.13-.18.05-.26-.18-.18-.37-.35-.57-.49,1.16.22,2.32.12,3.34-.23h.02s.02-.02.04-.02c.28-.19-.39-.71-.68-.87,1.68.3,2.75-.2,3.51-.47.11-.05.11-.2,0-.26-.25-.12-.49-.23-.75-.34,1.86.23,3.2-.69,3.25-.71.1-.06.09-.21-.01-.25-.17-.08-.35-.16-.53-.23,1.14.09,2.31-.21,3.32-.8.04-.02.07-.06.09-.11.04-.11-.02-.22-.12-.26ZM31.23,45.18c-.07.09-.15.14-.23.22,0,0-.02.02-.03.03-.14.12-.28.21-.43.31-.42.26-.83.53-1.19.87-.64.58-1.16,1.24-1.78,1.79,0-.08-.04-.44.02-.47-.38.4-.73.83-1.13,1.22-.18.18-.37.34-.58.5-.08.06-.63.38-.64.45,0-.33.05-.67.13-1.02-.22.3-.36.66-.43,1.03,0,.14-.35.48-.44.59-.14.18-.3.35-.46.51-.17.17-.35.33-.54.47-.27.21-.31.13-.27-.18-.41.36-.73.8-1.14,1.16-.11.09-1.25.87-1.26.85-.14-.43-.03-.79-.03-1.24-.23.38-.41.78-.77,1.06-.21.16-.42.31-.64.46-1.58,1.16-2.04,1.44-2.5,2.01.42-.52.72-1.18,1.09-1.75.45-.68.99-1.23,1.51-1.84-.3-.07-.55.06-.84.04.17-.32.47-.62.75-.85.37-.31.8-.55,1.29-.74.23-.05.44-.14.62-.27-.35.06-.69.06-1.01,0,.54-.43,1.07-.83,1.71-1.06.28.04.56.01.82-.08-.41-.04-.78-.15-1.11-.33.15-.08.29-.17.44-.24.24-.12.49-.23.73-.33.5-.21,1.01-.38,1.55-.55-.05,0-.11,0-.16,0,.22,0,.43-.03.62-.13-.34,0-.65-.08-.92-.22.8-.51,1.3-.73,2.2-1.1.41.09.84.05,1.18-.14-.35.08-.7.06-1.01-.05,1.37-.57,2.97-.66,4.36-1.22-1.5.83-2.97,1.72-4.4,2.67-.86.18-1.71.4-2.54.68.64-.05,1.27-.15,1.9-.25-.18.12-.35.23-.53.36-.27.18-.53.38-.79.56-1.02.27-2.03.59-3.02.97.79-.13,1.56-.29,2.33-.48-1.73,1.26-3.4,2.59-4.99,4.02l.05.05c1.11-.8,2.17-1.66,3.26-2.49.38-.28.76-.56,1.14-.83-.32.63-.61,1.28-.86,1.95.48-.68.68-1.2,1.06-1.93l.09-.25c.42-.3,1.81-1.26,1.9-1.32.61-.41,1.23-.8,1.85-1.19-.27.48-.54.97-.76,1.48.48-.58.92-1.18,1.31-1.81.36-.22.71-.44,1.07-.65.87-.51,1.74-.97,2.56-1.55-.05.03-.09.19-.13.24ZM31.46,44.53c-.79-.13-1.5-.38-2.33-.37-.44.01-.9-.04-1.36-.05-.23-.01-.46-.01-.69-.01-.12,0-.23,0-.35,0,.24-.27.56-.49.92-.62-.24.02-1.79.51-3.91.18.3-.62.67-.74.85-.86-.03,0-.06.01-.1.02.01,0,.03-.02.04-.03-.15.02-1.59.72-3.62.75.19-.42.48-.81.87-1.12-1.43.47-2.66.64-4.09.54.24-.35.54-.58.85-.84-.8.16-1.64.22-2.45.26-.43.02-.86.03-1.29.01-.22,0-.44-.02-.66-.03-.2-.01-.4-.08-.59-.05.23-.26.46-.49.73-.73-.7.23-1.18.07-1.93.03-.34-.02-.68-.04-1.01-.07-.14-.01-1.1-.21-1.16-.14.23-.31.48-.62.74-.92-.05.03-.1.07-.15.1,0-.01-.02-.02-.04-.02-.23.03-.45.13-.67.19-.04.01-.09.02-.13.03-.96-.03-1.75-.13-2.73-.43.2-.27.66-.8,1.05-.76-2.02-.2-3.93-1.04-5.96-1.31.9.12,1.99-.28,2.85-.48,1.17-.28,2.57-.26,3.9-.11-.3-.04-.47-.44-.54-.72,1.34.06,2.41.44,3.57,1.07-.03-.04-.07-.08-.1-.11-.13-.19-.21-.39-.25-.59,0,.04.77.18.86.21.27.08.54.16.81.26.57.21,1.07.43,1.58.75-.25-.16-.27-.65-.31-.9,0,.1,1.74.47,1.92.57.54.3,1.07.61,1.61.91-.3-.16-.33-.71-.38-.99,0,0,1.02.16,1.12.19.38.1.74.23,1.09.4.77.37,1.37.88,1.97,1.47-.09-.09-.19-.43-.21-.55-.03-.15.02-.3.07-.43.87.2,1.71.63,2.48,1.11.26.23.51.47.78.69.06.05.13,0,.12-.07,0-.01,0-.03,0-.05-.02-.2-.04-.44-.11-.62.03.02.08.05.19.11.54.3,1.05.52,1.34.7.76.51,1.13.92,1.55,1.28.25.22.53.42.82.6-1.05-.33-2.11-.66-3.17-.98-1.24-.36-2.95-2.02-2.97-2.05.41.65.97,1.21,1.61,1.65-.78-.23-1.57-.46-2.36-.67-.98-.68-1.99-1.32-3.03-1.91.71.59,1.44,1.15,2.19,1.69-.71-.18-1.43-.34-2.16-.48-.13-.03-.27-.05-.4-.08-.96-.58-1.95-1.12-2.96-1.6.69.51,1.4.99,2.12,1.44-1.86-.35-3.72-.64-5.59-.92-.05,0-.1-.01-.14-.02-.76-.54-1.54-1.05-2.36-1.51.56.5,1.14.97,1.73,1.42-.88-.13-1.77-.26-2.65-.38l-1.72-.23c-.57-.07-1.15-.13-1.74-.09,1.13.23,2.28.37,3.42.54,1.25.18,2.5.44,3.76.54-1.27,0-2.69.46-3.9.84,1.47-.24,2.34-.47,3.8-.63l.57-.09c1,.17,2,.34,3,.52-1.12.35-2.23.73-3.32,1.16,1.51-.32,3.1-.8,3.77-1.08.85.16,1.7.32,2.54.5.35.07.69.15,1.03.23-1.29.27-2.57.58-3.84.94,1.49-.19,2.4-.38,3.87-.68l.54-.12c.62.15,1.23.32,1.85.5-.91.23-1.82.49-2.71.8,1.11-.16,2.2-.37,3.29-.63.88.26,1.76.53,2.64.8.51.16,1.03.32,1.54.49-.82.11-1.63.24-2.44.42,4.51-.02,1.39-.8,7.03,1.06-.12.06-.24.13-.36.19ZM33.1,58.64s.01,0,.02,0c-.02,0-.03,0-.05,0-.44-.09-.75-.07-.78-.46-.34-4.23-.47-8.36-.15-13.73.03-.04.12-.15.16-.19.1.01.14.08.17.15-.03.2-.14,1.82-.08,2.01-.02-.03-.34,7.52.71,12.23ZM33.75,44.67c.2.12.35.27.56.37.27.13.57.23.85.34.97.39,1.93.8,2.9,1.2-.28.05-.55.1-.82.16-.15-.01-.29-.02-.44-.01,1.62.63,1.15.39,2.73,1.07-.38.09-.77.16-1.17.21.31.09.64.12.97.12.34.1.68.24,1.02.34.16.05.62.37.72.36-.25.03-.49.07-.74.1.48.34.95.68,1.41,1.04.22.17.43.36.64.55.18.17.48.59.72.64l-.72-.11c.75.7,1.34,1.55,1.86,2.43.22.39.43.79.61,1.2-.11-.15-.22-.3-.34-.44-.88-1.05-2.06-1.7-3.13-2.48-.05.07-.22.5-.11.57-.53-.35-.97-.84-1.26-1.41-.06.2-.13.41-.14.62-.78-.53-1.35-1.31-1.84-2.1,0,.02,0,.03,0,.05-.02-.03-.05-.06-.07-.08.15.34.13.7,0,.98-.42-.35-.82-.72-1.2-1.12-.16-.17-.32-.35-.48-.53-.09-.1-.55-.46-.55-.59,0,.1-.06.74.02.82-.47-.47-.91-1-1.34-1.54,0-.03,0-.05-.02-.08-.37-.46-.73-.94-1.05-1.43-.23-.35-.51-.74-.65-1.16.13.11.3.2.47.29.58.79,1.09,1.64,1.52,2.53-.2-.76-.51-1.5-.91-2.18.32.18.64.36.95.56.33.2.65.42.98.64.46.89.96,1.76,1.52,2.6-.3-.77-.64-1.52-1.01-2.26.47.32.93.65,1.39.99.47.35,5.41,4.46,5.29,4.57l.06-.06c-.68-.9-1.52-1.65-2.34-2.41-.83-.75-1.68-1.48-2.56-2.18-1.62-1.29-3.36-2.45-5.19-3.43.09-.02.17-.04.26-.06.23.09.56.29.65.34ZM54.89,39.05c-.51.14-1.02.2-1.53.3.06.05.44.43.51.4-.55.2-1.11.37-1.68.48-.26.05-.52.08-.78.1-.14.01-.28.05-.43.07-.08,0-.35.07-.41.02.14.11.28.22.42.33.05.04.32.31.38.29-1.45.39-2.68.44-4.15.35.21.09.44.16.66.22.29.19.54.43.72.71-.67.13-1.97.37-4.35.09.3.14.62.25.94.33.19.19.36.38.53.58-1.4.33-2.71.29-4.15,0,.92.55.92.2,1.81.97-1.4.32-2.85.18-4.24-.35.07.06.15.11.23.17-.02,0-.03-.02-.05-.03,0,0-.02,0-.01.02.32.33.54.74.73,1.15-.04.04-.04.04-.08.08-1.77-.9-3.67-1.15-5.22-1.22-.16-.03-.3-.05-.45-.06.61-.15,1.22-.3,1.82-.46.95.08,1.89.34,2.76.77-.61-.45-1.33-.77-2.08-.95.54-.14,1.07-.28,1.61-.43,1.22.4,2.45.78,3.69,1.11-1.06-.45-2.13-.86-3.21-1.25.47-.13.93-.26,1.4-.4,1.13.2,2.28.36,3.43.46-.92-.25-1.86-.46-2.79-.65.82-.24,1.64-.49,2.45-.75,1.13.19,2.27.34,3.41.45-.94-.25-1.89-.45-2.84-.64.23-.07.46-.15.69-.22.56-.19,1.13-.39,1.69-.59,1.19.18,2.38.34,3.58.43-1.01-.25-2.02-.46-3.04-.64.25-.1.51-.19.76-.29.19-.08.37-.15.56-.23.27-.05.65-.2.73-.27,1.26.13,2.52.2,3.79.22-1.07-.2-2.15-.35-3.23-.47.36-.14.72-.29,1.09-.42.4-.15.8-.29,1.21-.43h.33c.85.05,1.36.13,2.21.06-.68-.12-1.36-.19-2.04-.24,1.42-.49,2.86-.94,4.31-1.35v-.06c-2.09.42-4.12,1.03-6.13,1.71-.21.07-.43.15-.64.22.46-.41.92-.83,1.36-1.25-.71.48-1.4.98-2.07,1.5-.97.35-1.92.72-2.89,1.07.83-.65,1.65-1.31,2.45-2-1.15.73-2.26,1.51-3.35,2.31-.28.09-.55.19-.83.28-.31.1-.62.2-.92.29.81-.61,1.54-1.3,2.16-2.09-.97.92-2.03,1.71-3.16,2.4-.49.15-.98.29-1.47.43.56-.55,1.11-1.11,1.64-1.7-.78.59-1.53,1.22-2.25,1.87-.5.14-1.01.28-1.51.42.33-.32.6-.69.77-1.1-.3.37-.65.7-1.04.98-.35.25-.68.34-1.06.45-.34.11-.69.21-1.04.3-1.01.26-2.02.53-3.04.79-.15.04-.66.08-.76.19.93-1.08,1.87-2.16,2.81-3.23,1.06-.4,2.1-.86,3.12-1.36-.92.25-1.82.55-2.71.88.73-.84,1.45-1.68,2.18-2.51.04-.05.09-.1.14-.15,0,0,0-.01,0-.02.12-.14.25-.27.37-.41,1.31-.3,2.61-.65,3.9-1.06-1.19.18-2.37.4-3.54.66.54-.61,1.07-1.22,1.62-1.82,1.85-.05,3.67-.67,5.14-1.74-1.5.84-3.16,1.31-4.85,1.4.78-.83,1.54-1.7,2.26-2.59v.07c1.37-.12,2.7-.56,3.85-1.27-1.17.48-2.39.78-3.62.92.16-.2.32-.4.48-.6.4-.5.79-1.01,1.18-1.51v.05c1.17,0,2.33-.29,3.33-.86-1.02.34-2.06.52-3.11.53.64-.82,1.28-1.65,1.92-2.47,1.03.07,2.21-.28,3.03-.87-.85.38-1.89.59-2.79.56.35-.45.69-.91,1.03-1.36,1.54-.13,3.01-.9,3.98-2.06-1.05.94-2.35,1.53-3.71,1.71.16-.21.33-.43.49-.64,0,0,1.14-1.52,1.14-1.52l.36-.48c1.04-.63,2.07-1.3,3.06-2.02-.88.44-1.75.91-2.6,1.4l.66-.89c.86-1.17,1.87-2.52,2.68-3.74l-.35.32c-.69.92-1.23,1.64-1.93,2.56-.34.45-.69.9-1.03,1.35-.16.21-.35.42-.5.63-.06.09-.1.19-.16.28-.03.05-.18.16-.19.21.21-1.12.43-2.2.93-3.24-.74,1.04-1.18,2.3-1.25,3.59h.05c-.35.47-.7.93-1.05,1.4-.18.23-.36.46-.53.69-.2-1.34.05-2.76.73-3.98-.92,1.19-1.3,2.81-1,4.32-.6.79-1.21,1.59-1.82,2.38-.15-1.37-.09-2.77.19-4.15-.49,1.34-.66,2.82-.5,4.25l.26-.03c-.69.89-1.4,1.77-2.1,2.65-.02-1.53.06-3.07.26-4.61-.43,1.6-.63,3.27-.58,4.94h.05c-.12.15-.23.29-.35.44-.38.47-.77.94-1.16,1.4-.28-1.33-.23-2.73.14-4.06-.61,1.34-.75,2.91-.4,4.37-.47.54-.94,1.07-1.44,1.59-.04.05-.08.09-.12.14-.17-1.15-.16-2.33.03-3.5-.42,1.17-.58,2.05-.37,3.3l.16.4c-.68.75-1.36,1.5-2.03,2.25.23-.92.44-1.85.61-2.79-.4,1.08-.74,2.17-1.05,3.28-.05.06-.11.12-.16.18-1.82,2.04-3.62,4.09-5.42,6.15,0,0-.02-2.09,0-2.09.4-1.57,1.09-3.07,2.05-4.41-.91.97-1.61,2.14-2.07,3.4l-.02-3.23c1.03-.97,1.89-2.11,2.54-3.36-.76,1.06-1.61,2.04-2.54,2.93l-.02-2.84c1.13-1.12,2.14-2.36,2.98-3.7-.95,1.14-1.94,2.22-2.99,3.25l-.02-3.08c1.78-1.57,2.01-1.45,3.03-3.46-.77,1.08-2,2.09-3.03,3.03l-.02-3.07c1.28-1.02,2.71-2.36,3.43-3.82-.86,1.28-2.26,2.44-3.43,3.4v-1.68s-.03-1.29-.03-1.29c.93-1.17,2.19-2.4,3.04-3.64-.93,1.01-2.19,2.09-3.05,3.15l-.03-3.02c1.11-.97,2.34-2.27,2.82-3.65-.63,1.22-1.83,2.33-2.83,3.24l-.03-3.08c.89-1.18,1.6-2.5,2.09-3.88-.62,1.18-1.32,2.29-2.1,3.36v-.82s-.04-2.62-.04-2.62c.52-1.01,1.01-2.04,1.45-3.09-.52.81-1,1.63-1.46,2.47l-.02-1.58-.04-2.41c-.03-.81-.02-1.6-.22-2.42l-.09.06s0,.02,0,.04v.07s-.01.15-.01.15c0,.1-.02.2-.02.3l-.02.6c0,.4,0,.8,0,1.2l.04,2.41.03,2.24s0,0,0,.02v.76c-.6-1.22-1.1-2.49-1.45-3.82.2,1.57.7,3.12,1.47,4.52v1.1s.03,1.54.03,1.54c-.86-1.4-1.57-2.89-2.09-4.47.35,1.75.65,2.83,1.63,4.34l.47.57.03,3.15c-1-1.34-1.91-2.76-2.71-4.25.64,1.66,1.11,2.51,2.27,4.02l.44.55.03,3c-1.15-1.42-2.29-2.96-3.09-4.61.68,1.85,1.83,3.6,3.1,5.12v.67s.02,2.09.02,2.09c-.58-.74-1.29-1.49-1.82-2.28-.62-.88-1.18-1.79-1.73-2.72.45.98.98,1.92,1.53,2.85.58.91,1.33,1.81,2.01,2.65h.02s.02,2.84.02,2.84c-.86-1.22-1.9-2.43-2.83-3.6.85,1.41,1.89,2.8,2.83,4.15v2.16c-.76-1.03-1.41-2.07-2.25-3.05.76,1.21,1.42,2.43,2.26,3.58l.02,2.7c-.97-1.12-1.55-2.36-2.31-3.65.6,1.45.77,2.27,1.81,3.46l.5.48.02,3.66c-.76-1-1.14-2.11-1.71-3.25.43,1.35.83,2.66,1.71,3.79l.02,2.78c-2.19-2.26-4.36-4.53-6.5-6.83-.2-.42-.51-1.04-.71-1.46-.12-.81-.27-1.62-.45-2.42.03.95.11,1.9.22,2.85-.52-.56-1.03-1.13-1.52-1.7-.1-1.45-.25-2.89-.46-4.33,0,1.32.04,2.64.13,3.95-.46-.55-.91-1.11-1.34-1.69l.04-.57c-.12-1.46-.28-2.36-.51-3.81.02,1.35.09,2.69.19,4.02-.4-.53-.8-1.07-1.2-1.61-.16-.22-.32-.44-.48-.66v-.6c-.08-1.22-.15-1.83-.35-3.04-.01,1.1.03,2.2.1,3.3-.41-.57-.82-1.14-1.23-1.71-.11-1.03-.27-2.05-.48-3.07,0,.86.06,1.72.13,2.57-.47-.67-.94-1.34-1.41-2.01-.15-1.09-.34-2.18-.6-3.26.03.91.11,1.82.22,2.72-.27-.39-.54-.77-.81-1.16l-.15-.76c-.36-1.18-.51-1.63-.98-2.78.21,1.02.47,2.02.76,3.02-.03-.04-.06-.08-.08-.12-.04-.06-.78-1.14-2.63-3.82l-1.3-1.92-.65-.96c-.22-.32-.44-.64-.73-.91l-.06.04c.37.68.82,1.31,1.25,1.95l1.28,1.91c-.68-.35-1.36-.68-2.07-.98.79.55,1.6,1.06,2.44,1.52l1.58,2.33c-.67-.35-1.35-.68-2.06-.96.72.52,1.1.72,1.87,1.15l.43.17.42.62c.21.3.42.6.62.9-.71-.32-1.44-.62-2.18-.87.8.5,1.34.73,2.18,1.13l.31.19c.17.25,1.23,1.79,1.4,2.03-.91-.41-2.31-.53-3.26-.87,1.01.59,2.52.87,3.58,1.36.07.09.08.09,1.45,2.03-1.02-.42-2.52-.55-3.57-.9,1.12.6,2.75.88,3.91,1.38.29.41.57.82.87,1.22.03.04.06.09.09.13-.95-.37-2.38-.44-3.37-.73,1.02.52,2.06.52,3.11.94l.51.14c.61.84,1.23,1.67,1.87,2.49-1.24-.52-2.97-.74-4.25-1.19,1.31.67,3.11,1.03,4.46,1.61l.21.09c.06.07.11.14.17.22.82.96,1.68,1.9,2.53,2.83-.87-.43-1.75-.85-2.65-1.22,1.06.67,2.14,1.29,3.24,1.87.6.65,1.2,1.29,1.8,1.93-.82-.37-1.64-.72-2.49-1.03.98.59,1.98,1.12,3.01,1.61v-.02c1.3,1.38,2.6,2.75,3.91,4.12-.1-.03-.19-.06-.29-.09-1.38-1.56-3.31-2.99-5.46-3.93.2-.06.72-.33.93-.24-.62-.27-1.23-.53-1.82-.87-.29-.16-.56-.34-.83-.53-.1-.07-.73-.63-.8-.6.33-.13.67-.16,1.02-.2-.63-.35-1.35-.9-2.13-1.06-.5-.1-1.68-.98-1.78-.94.34-.15.72-.25,1.11-.3-1.24-.35-2.22-.85-3.19-1.54.44-.18.93-.25,1.44-.19-.14-.07-.26-.1-.4-.13-.18-.03-.46-.14-.62-.22-.4-.21-.79-.45-1.17-.69-.25-.16-.49-.33-.72-.51-.1-.07-.68-.63-.75-.61.6-.2,1.19-.31,1.8-.14-.1-.08-.2-.14-.31-.19-.11-.1-.26-.16-.41-.22-.57-.35-2.43-1.45-2.46-1.47.37-.24.81-.37,1.29-.39-.14-.06-.29-.09-.45-.11-.92-.58-1.44-.92-2.21-1.7,1.52-.23,1.82-.48,2.03-.44-2.3-.59-3.74-2.23-3.8-2.22.58-.15,1.18-.08,1.81-.15-.16-.06-.33-.11-.49-.14-.54-.09-2.05-1.91-2.06-1.93.06.06,1.13,0,1.2,0-.32-.31-.65-.56-.96-.89-.42-.45-.77-.95-1.07-1.5.38-.05.77-.04,1.17.01.09.03.18.05.28.04.05,0,.08-.07.03-.1-.1-.06-.21-.09-.32-.12-1.11-.77-1.94-1.54-2.7-2.65.38-.11.79-.14,1.22-.06-.07-.05-.15-.08-.24-.11-.14-.2-.36-.31-.52-.48,0-.01-.02-.02-.03-.03-.89-1.41-1.4-3.37-1.98-4.58-.02-.04-.04-.07-.06-.11,1.12,1.26,2.11,2.01,3.26,3.55.15.32.3.63.51.9.03.11.06.22.11.32,0-.29.04-.57.1-.83.78.81,1.22,1.46,1.8,2.45.01.08.03.16.07.24,0-.25.08-.47.21-.65.4.45.75.94,1.04,1.47.28.51.5,1.06.69,1.64,0,.13,0,.27.04.4.09-.45.39-.96.66-1.26,0,0,.77,1.48.84,2.19.03.3.04.61.07.91.18-.4.34-.76.61-1.11.79,1.09,1.09,1.87,1.5,3.14.02-.27-.07-.62.44-1.09.8,1.18,1.17,2.72,1.1,3.57.21-.37.45-.7.72-1,.23.34.42.7.58,1.08.15.38.26.78.36,1.2-.07.28-.06.57.03.83.04-.44.21-.82.46-1.12.24.37.46.75.66,1.14.16.33.36.68.46,1.03.13.47.16.99.23,1.47.14-.48.37-.93.68-1.31.08.34.13.68.27.99.15.35.27.72.37,1.08.22.74.31,1.45.41,2.21.09-.43.17-.78.48-1.12-.03.03.56,1.17.61,1.31.08.21.2.45.24.67.05.28.03.59.05.87.14-.26.27-.52.41-.78.42.81.84,1.6,1.23,2.42.03.13.05.25.08.38.05.22.07.46.18.67.02.04.06.04.1.02.01,0,.03,0,.04-.02.02-.03.02-.06.04-.1.02-.05.05-.1.07-.16.03-.09.07-.16.1-.23.2.41.42.81.64,1.2.62,1.09,1.44,2.07,2.18,3.08-.07-.1-.05-.42-.08-.54-.04-.21-.1-.43-.18-.63-.15-.41-.35-.8-.61-1.16-.52-.73-.75-1.55-1.01-2.42-.01-.08-.02-.17-.03-.25.02,0,.03.02.05.03.34.44.4.54.84.8-.25-.33-1.63-3.46-1.63-3.88,0-.09,0-.19,0-.28.03.02.07.04.1.05.47.43,1,.71,1.55,1.02-1.16-1.55-2.05-3.26-2.3-5.19.2.12.39.23.57.35.25.15.47.32.77.5-.01-.36-.25-.66-.53-.85-.31-.53-.58-1.06-.77-1.62-.23-.66-.47-1.39-.47-2.09,0,.18.55.47.68.58.28.23.54.47.88.71-.04-.3-.19-.57-.38-.8-.56-1.22-1.1-1.95-1.25-3.29.36.11.84.3,1.32.37-.08-.16-.19-.28-.33-.39-.36-.6-.66-1.18-.86-1.81-.16-.5-.27-1.01-.33-1.54.14.03.28.04.41.06.32.04.63.11,1.01.13-.04-.06-.08-.11-.11-.14-.42-.56-.67-1.15-.84-1.79-.13-.49-.21-.98-.27-1.5.13.06.26.13.39.19.3.14.57.3.93.45-.06-.2-.16-.37-.3-.52-.51-1.14-.59-2.26-.44-3.59.53.37.91.83,1.26,1.29.03-.36-.11-.72-.33-1.02-.19-1.14-.54-2.05-.45-3.51.37.22.74.45,1.13.68-.06-.12-.13-.22-.2-.33-.47-1.54-.24-2.04-.09-3.52.45.33.74.77,1.12,1.15-.01-.44-.02-.88-.02-1.31,0-.51.02-1.02.05-1.52.06-.99.17-1.98.42-2.94.08-.31.15-.64.21-.97.02.19.05.38.08.57.18.95.51,1.86.77,2.79.26.95.52,1.93.26,2.9.06-.04.88-.71.88-.71.7,1.96.41,2.74.43,3.04-.12.23-.21.47-.25.72.22-.4.41-.64.65-.87.04.61.14,1.12.24,1.59,0,.43.04.86.03,1.29-.01.61-.19,1.08-.4,1.64,0,.02,0,.03,0,.05-.06.12-.1.24-.12.38.35-.2.87-.62,1.13-.83-.07.06.05.82.05.94,0,.28,0,.57-.02.85-.02.27-.02.6-.1.86-.09.28-.3.56-.44.82-.05.09-.22.55-.29.57.42-.13.88-.5,1.2-.79.04-.04.08.35.08.38,0,.14-.02.28-.03.42-.02.32-.06.64-.11.95-.11.7-.26,1.4-.52,2.06-.26.25-.44.59-.44.96.77-.67.08-.11,1.4-1.2.05,1.18-.08,2.11-.51,3.26-.28.27-.48.63-.47,1.03.68-.63.13-.18,1.34-1.24-.84,3.22-1.85,4.27-1.91,4.69.25-.15,1.45-1.01,1.49-1.04-.07,1.34-.38,2.26-.92,3.49-.27.18-.49.46-.52.8.37-.18.97-.58,1.26-.82-.38,1.86-.83,2.97-1.82,4.6.06-.1.23-.19.32-.27.38-.36.78-.7,1.18-1.03,0,.36-.21.74-.31,1.08-.07.22-.14.44-.22.67-.1.27-.33.66-.51.89-.14.18-.25.38-.33.59.26-.41.63-.74,1.04-.95-.39,1.12-1.21,1.69-1.74,3.01-.34.83-.51,1.66-.52,2.55.72-.82,1.24-1.75,1.85-2.65.9-1.25,1.49-3.18,1.56-3.35.07.2.42.69.48,1.42.02,0,.04,0,.06,0-.02,0,.13-1.44.14-1.54.06-.37.15-.75.26-1.11.12-.38.25-.97.51-1.26.13.31.17.68.24,1,.26-1.26.53-2.39,1.31-3.45.25.44.38.95.36,1.5.15-.39.17-.83.08-1.25.22-1.06.57-1.97,1.15-2.89.17.25.31.51.42.8,0,.02,0,.04,0,.06,0,0,0-.02,0-.03.09.25.17.5.23.77.06-.44,0-.9-.14-1.33.22-1.18.7-2.11,1.42-2.89,0,.03.18.48.37,1.42-.08-.4.09-.98.21-1.36.32-1.01.98-1.93,1.68-2.7.16.44.31.87.47,1.31.24-.78.43-1.51.82-2.24.26-.49.57-1.03.96-1.42.3.27.42.91.38,1.3,0-.15.23-.37.28-.53.04-.13.03-.24.05-.37.06-.4.22-.83.42-1.18.1-.18.28-.4.43-.6l.47-.62.23-.31.09-.12c.16.29.32.75.29,1.08,0-.02.02-.03.02-.04,0,.06.01.12.02.18.04-.12.06-.24.08-.36.71-1.41,1.21-2.11,1.9-2.9.29.4.48.87.56,1.39,0-.03,0-.06.01-.09.02.14.06.28.11.41-.2-1.88,1.21-1.96,4.07-5.43-.02.08-.05.15-.06.23-1.15,1.88-1.47,4.34-3.05,6.23.06-.04.12-.09.17-.14.25-.09.49-.15.73-.19-.42.99-1.05,1.74-1.9,2.43.07-.02.13-.05.2-.07-.16.08-.31.17-.44.29.33-.15.68-.21,1.02-.21-.06.89-2.12,2.67-2.81,3.23-.11.06-.22.12-.32.2.04-.01.08-.02.11-.03-.02.01-.04.03-.05.05.04-.02.24-.15.86-.16-1.13,1.15-2.79,1.92-3.35,2.02.64.13,1.28.27,1.82.54-.65.55-.55.84-2.29,1.73-.09.02-.18.04-.27.06.53.03,1.02.18,1.5.36-.95.82-1.75,1.28-2.84,1.91-.14.01-.28.03-.42.06.6.04,1.17.16,1.71.35-.04.03-.21.2-.24.23l-.44.43c-.29.24-.65.51-.95.77-.5.43-1.1.74-1.78.91-.2.01-.4.04-.6.09.46.03.9.12,1.31.27-1.85,1.72-3.62,2-3.92,2.13.95-.04.72-.05,1.53-.02-.67.84-2,1.1-3.16,1.56.09,0,.17-.01.26-.02.32,0,.62.12.84.32-1.85,1.56-4.41,2.23-6.14,3.77-.17.12-.34.25-.49.4-.16.15-.21.23-.25.43.54-.05.98-.33,1.44-.57.81-.19,2.81-1.18,3.33-1.41-.03.17-.07.34-.1.52.75-.75,1.54-1.37,2.48-1.84.05.25-.03.47-.09.7,0-.08.41-.38.48-.44.13-.11.27-.2.4-.3.22-.16.43-.32.66-.45.55-.33,1.15-.72,1.75-.97.16.26.1.76-.08,1,.23-.11.38-.45.55-.62.21-.22.49-.38.74-.55.54-.35,1.12-.64,1.73-.86.07.25.07.53,0,.81-.05.07-.11.14-.15.21,1.2-.88,1.99-1.63,3.33-2.3.07.25.05.72-.06.98-.06.08-.12.17-.16.26,0,.01,0,.02,0,.03-.03.03-.04.07-.07.1.04-.02.07-.05.11-.07.01,0,.02,0,.04-.01.23-.19.44-.39.67-.57.94-.44,1.65-.85,2.7-1.08.02.13,0,.39-.02.53,0,0,0,0-.01.01,0,.12-.03.25-.08.38.07-.06.13-.13.18-.21.12-.19.33-.32.54-.4.71-.25,1.13-.4,2-.63-.04.2-.12.41-.25.6.05-.02.1-.06.14-.09-.02.03-.03.06-.06.08,1.5-.23,3-.57,4.4-.97-1.63,1.04-2.75,1.67-4.29,2.47-.36,0-.72.06-1.07.16.71.01,1.39.12,2.03.32-.49.23-1,.41-1.51.56Z" style="fill:#15332d;" />
                </g>
              </svg>